<?xml version="1.0" encoding="UTF-8"?>
<!-- Generator: visioncortex VTracer 0.6.12 -->
<svg version="1.1" xmlns="http://www.w3.org/2000/svg" width="803" height="658">

<path d="M0 0 C1.83 0.017 3.659 0.111 5.484 0.234 C6.06 0.273 6.06 0.273 8.975 0.47 C80.592 5.787 148.289 31.502 202 80 C202.613 80.552 203.227 81.103 203.858 81.671 C232.765 107.799 255.375 138.755 272 174 C272.332 174.702 272.665 175.404 273.007 176.127 C309.781 254.481 310.24 344.536 281.371 425.324 C276.109 439.434 269.863 453.146 262.363 466.207 C261 469 261 469 261 473 C262.695 474.719 262.695 474.719 265.125 476.5 C270.239 480.377 275.089 484.472 279.913 488.699 C283.786 492.059 287.789 495.073 292 498 C292.241 497.448 292.482 496.897 292.73 496.328 C294.289 493.47 296.176 491.206 298.312 488.75 C299.072 487.858 299.831 486.966 300.613 486.047 C303 484 303 484 305.348 483.332 C309.507 484.38 312.029 487.066 315.125 489.938 C316.468 491.143 317.811 492.348 319.156 493.551 C319.812 494.143 320.469 494.736 321.145 495.346 C323.578 497.515 326.089 499.577 328.625 501.625 C332.627 504.867 336.576 508.164 340.5 511.5 C344.469 514.873 348.46 518.212 352.5 521.5 C357.105 525.248 361.64 529.07 366.164 532.914 C370.465 536.563 374.823 540.136 379.199 543.695 C382.268 546.22 385.29 548.795 388.312 551.375 C392.771 555.176 397.309 558.846 401.938 562.438 C407.35 566.638 412.574 571.012 417.737 575.515 C421.251 578.562 424.846 581.443 428.557 584.247 C439.808 592.778 447.955 602.443 450.684 616.629 C452.04 626.793 450.728 636.832 446 646 C434.96 646.209 423.921 646.369 412.879 646.466 C407.751 646.513 402.625 646.577 397.498 646.679 C392.544 646.777 387.591 646.831 382.636 646.854 C380.752 646.87 378.868 646.903 376.984 646.952 C360.389 647.364 360.389 647.364 353.944 641.597 C352.597 640.093 351.276 638.564 350 637 C348.265 635.544 346.519 634.102 344.75 632.688 C340.388 629.16 336.119 625.542 331.875 621.875 C328.148 618.658 324.418 615.486 320.5 612.5 C315.944 609.028 311.634 605.291 307.3 601.55 C301.945 596.934 296.492 592.45 291 588 C284.624 582.819 278.314 577.573 272.065 572.24 C267.402 568.286 262.613 564.506 257.757 560.792 C254.224 558.064 251.083 555.209 248 552 C249.816 546.531 253.281 542.916 257.004 538.621 C258.813 536.245 259.61 534.905 260 532 C253.677 526.794 247.323 521.629 240.938 516.5 C240.283 515.972 239.628 515.444 238.953 514.899 C234.233 511.116 234.233 511.116 232 510 C231.747 510.561 231.495 511.121 231.234 511.699 C225.533 522.326 215.27 531.334 207 540 C206.245 540.798 205.489 541.596 204.711 542.418 C200.39 546.873 195.729 550.79 190.887 554.668 C189.011 556.183 187.158 557.726 185.332 559.301 C170.621 571.978 154.436 582.377 137.421 591.67 C135.227 592.876 133.053 594.111 130.883 595.359 C94.233 616.062 42.541 632.151 0 629 C-1.706 627.294 -1.128 625.093 -1.129 622.762 C-1.133 621.644 -1.136 620.526 -1.139 619.374 C-1.137 618.158 -1.135 616.941 -1.133 615.688 C-1.134 614.448 -1.135 613.209 -1.136 611.932 C-1.136 609.306 -1.135 606.68 -1.13 604.054 C-1.125 600.681 -1.128 597.308 -1.134 593.935 C-1.138 590.727 -1.135 587.52 -1.133 584.312 C-1.135 583.096 -1.137 581.879 -1.139 580.626 C-1.136 579.508 -1.133 578.39 -1.129 577.238 C-1.129 576.249 -1.128 575.259 -1.127 574.24 C-1 572 -1 572 0 571 C1.546 570.831 3.099 570.723 4.652 570.641 C72.815 566.451 133.958 535.597 179.621 485.102 C193.451 468.608 205.723 450.547 214.978 431.113 C216.002 428.996 217.07 426.906 218.148 424.816 C248.07 365.832 251.563 294.335 232.082 231.641 C221.84 200.36 205.425 166.369 181.258 143.34 C180 142 180 142 180 140 C179.34 140 178.68 140 178 140 C176.766 138.707 176.766 138.707 175.25 136.812 C166.179 126.179 155.296 117.165 144 109 C143.411 108.57 142.821 108.14 142.214 107.697 C117.259 89.618 89.69 76.264 60 68 C59.172 67.766 58.344 67.532 57.49 67.291 C38.413 62.009 18.654 59.924 -1 58 C-1.023 50.585 -1.041 43.171 -1.052 35.756 C-1.057 32.314 -1.064 28.871 -1.075 25.428 C-1.088 21.474 -1.093 17.52 -1.098 13.566 C-1.103 12.325 -1.108 11.083 -1.113 9.804 C-1.113 8.663 -1.113 7.522 -1.114 6.346 C-1.116 5.336 -1.118 4.325 -1.12 3.284 C-1 1 -1 1 0 0 Z " fill="#1C1C1E" transform="translate(340,12)"/>
<path d="M0 0 C0.896 3.073 1.126 5.816 1.129 9.012 C1.133 10.006 1.136 11.001 1.139 12.025 C1.138 12.559 1.138 12.559 1.133 15.258 C1.133 15.808 1.133 15.808 1.136 18.589 C1.136 20.911 1.135 23.233 1.13 25.554 C1.125 29.118 1.13 32.682 1.137 36.246 C1.136 38.5 1.135 40.754 1.133 43.008 C1.135 44.079 1.137 45.149 1.139 46.253 C1.136 47.241 1.133 48.229 1.129 49.247 C1.129 49.682 1.129 49.682 1.127 51.888 C1 54 1 54 0 56 C-2.835 56.945 -5.143 57.291 -8.102 57.578 C-63.506 63.261 -117.061 82.156 -158.473 120.656 C-160.673 122.697 -162.91 124.672 -165.188 126.625 C-172.974 133.43 -179.588 140.896 -186 149 C-186.782 149.966 -187.565 150.931 -188.371 151.926 C-230.376 204.818 -248.492 273.823 -240.875 340.625 C-232.467 406.219 -199.859 471.021 -147 512 C-146.042 512.775 -145.084 513.549 -144.098 514.348 C-130.781 524.944 -116.361 533.796 -100.974 541.048 C-99.546 541.737 -98.129 542.449 -96.719 543.174 C-90.44 546.406 -84.06 549.054 -77.438 551.5 C-76.38 551.891 -75.323 552.282 -74.234 552.685 C-52.587 560.596 -30.381 565.815 -7.321 567.368 C-1.194 567.806 -1.194 567.806 1 570 C1.247 572.277 1.247 572.277 1.243 575.152 C1.246 576.227 1.249 577.301 1.252 578.408 C1.249 578.991 1.249 578.991 1.23 581.938 C1.23 583.129 1.23 584.32 1.229 585.547 C1.226 588.069 1.218 590.59 1.206 593.112 C1.188 596.984 1.185 600.855 1.186 604.727 C1.181 607.172 1.175 609.617 1.168 612.062 C1.167 613.227 1.166 614.392 1.165 615.592 C1.158 616.666 1.152 617.741 1.145 618.848 C1.141 619.796 1.138 620.745 1.134 621.723 C1 624 1 624 0 626 C-24.104 625.302 -47.744 621.221 -71 615 C-71.766 614.803 -72.533 614.607 -73.322 614.404 C-91.856 609.635 -110 602.166 -126.861 593.144 C-128.42 592.31 -129.983 591.485 -131.549 590.665 C-143.94 584.171 -155.71 577.264 -167 569 C-168.053 568.241 -169.106 567.481 -170.191 566.699 C-188.995 552.897 -206.922 536.813 -222 519 C-222.797 518.092 -223.593 517.185 -224.414 516.25 C-263.937 470.942 -290.288 411.87 -297.724 352.216 C-297.907 350.746 -298.101 349.278 -298.308 347.811 C-306.343 289.952 -295.636 229.632 -271 177 C-270.619 176.179 -270.238 175.358 -269.846 174.513 C-250.879 134.04 -221.428 95.475 -186 68 C-185.23 67.363 -184.461 66.726 -183.668 66.07 C-133.978 25.033 -64.678 -1.606 0 0 Z " fill="#E2231A" transform="translate(312,14)"/>
<path d="M0 0 C9.249 7.735 17.15 15.712 23 26.312 C23.607 27.406 24.214 28.499 24.84 29.625 C34.535 47.99 36.315 66.632 36.406 87.012 C36.409 87.445 36.409 87.445 36.423 89.639 C36.453 94.217 36.472 98.794 36.48 103.371 C36.491 108.065 36.54 112.758 36.596 117.451 C36.634 121.097 36.644 124.742 36.647 128.387 C36.653 130.117 36.669 131.847 36.696 133.577 C36.843 143.951 36.378 151.617 30 160.312 C29.58 160.898 29.16 161.483 28.728 162.086 C14.682 180.215 -7.627 190.942 -28.5 199 C-29.378 199.339 -30.256 199.679 -31.161 200.028 C-35.323 201.564 -38.517 202.484 -43 202.312 C-47.573 191.315 -51.664 180.147 -55.739 168.958 C-58.008 162.732 -60.291 156.513 -62.641 150.316 C-63.05 149.236 -63.46 148.156 -63.882 147.043 C-64.645 145.036 -65.412 143.03 -66.183 141.026 C-68.157 135.831 -69.775 130.735 -71 125.312 C-61.629 120.827 -52.143 116.933 -42.438 113.25 C-34.972 110.405 -27.507 107.557 -20.098 104.566 C-19.135 104.179 -18.172 103.792 -17.18 103.393 C-15 102.312 -15 102.312 -14 100.312 C-13.913 97.323 -13.884 94.357 -13.902 91.367 C-13.904 90.482 -13.905 89.597 -13.907 88.685 C-13.912 85.853 -13.925 83.02 -13.938 80.188 C-13.943 78.27 -13.947 76.352 -13.951 74.434 C-13.962 69.727 -13.979 65.02 -14 60.312 C-16.343 60.568 -18.678 60.905 -21 61.312 C-22.476 64.265 -22.223 66.997 -22.316 70.289 C-22.327 70.632 -22.327 70.632 -22.379 72.366 C-22.445 74.556 -22.504 76.747 -22.562 78.938 C-22.606 80.422 -22.649 81.906 -22.693 83.391 C-22.8 87.031 -22.902 90.672 -23 94.312 C-28.686 96.604 -34.38 98.86 -40.125 101 C-41.503 101.514 -42.88 102.029 -44.258 102.543 C-45.006 102.822 -45.754 103.101 -46.524 103.388 C-50.311 104.802 -54.095 106.222 -57.878 107.642 C-59.957 108.422 -62.037 109.198 -64.118 109.973 C-68.705 111.683 -73.279 113.408 -77.812 115.258 C-78.529 115.545 -79.246 115.831 -79.984 116.127 C-81.849 116.877 -83.706 117.645 -85.562 118.414 C-94.41 120.726 -101.874 116.565 -109.875 113.062 C-110.995 112.584 -112.115 112.106 -113.27 111.613 C-131.586 103.727 -131.586 103.727 -134 101.312 C-134.114 99.721 -134.16 98.124 -134.177 96.528 C-134.19 95.505 -134.203 94.482 -134.216 93.428 C-134.223 92.308 -134.231 91.189 -134.238 90.035 C-134.246 88.881 -134.254 87.726 -134.263 86.537 C-134.277 84.076 -134.287 81.615 -134.295 79.155 C-134.312 75.45 -134.356 71.746 -134.4 68.041 C-134.567 42.945 -130.934 21.979 -113 3.312 C-82.584 -26.377 -32.724 -25.224 0 0 Z " fill="#1C1C1E" transform="translate(490,282.6875)"/>
<path d="M0 0 C0.763 0.62 1.526 1.24 2.312 1.879 C2.622 2.101 2.622 2.101 4.188 3.227 C16.6 12.622 25.014 29.837 27.312 44.879 C27.572 49.476 27.546 54.061 27.508 58.664 C27.505 59.961 27.502 61.258 27.499 62.594 C27.492 66.012 27.472 69.429 27.45 72.847 C27.429 76.347 27.42 79.846 27.41 83.346 C27.389 90.19 27.355 97.035 27.312 103.879 C9.145 113.02 9.145 113.02 0.875 116.816 C0.069 117.201 -0.738 117.586 -1.568 117.982 C-9.834 121.766 -15.497 122.897 -24.242 119.816 C-26.692 118.856 -29.128 117.877 -31.562 116.879 C-32.854 116.366 -34.147 115.855 -35.441 115.345 C-38.007 114.334 -40.57 113.314 -43.13 112.289 C-47.848 110.419 -52.604 108.668 -57.375 106.941 C-63.525 104.693 -69.633 102.373 -75.688 99.879 C-76.385 99.615 -77.082 99.35 -77.801 99.078 C-79.465 98.428 -81.083 97.664 -82.688 96.879 C-83.809 93.513 -83.896 90.788 -84.004 87.242 C-84.046 85.943 -84.088 84.645 -84.131 83.307 C-84.171 81.935 -84.21 80.563 -84.25 79.191 C-84.293 77.808 -84.337 76.424 -84.381 75.041 C-84.487 71.654 -84.589 68.266 -84.688 64.879 C-86.5 63.816 -86.5 63.816 -88.688 62.879 C-89.678 63.209 -90.667 63.539 -91.688 63.879 C-92.882 67.461 -92.85 70.739 -92.855 74.469 C-92.857 74.839 -92.857 74.839 -92.866 76.714 C-92.871 78.28 -92.873 79.846 -92.873 81.412 C-92.875 83.804 -92.893 86.196 -92.912 88.588 C-92.915 90.111 -92.917 91.633 -92.918 93.156 C-92.925 93.87 -92.932 94.584 -92.94 95.319 C-92.923 98.967 -92.897 101.881 -90.688 104.879 C-88.038 106.186 -85.512 107.241 -82.75 108.254 C-80.963 108.942 -79.177 109.631 -77.391 110.32 C-76.361 110.712 -75.332 111.104 -74.271 111.508 C-67.634 114.047 -61.017 116.634 -54.408 119.245 C-52.012 120.187 -49.611 121.115 -47.209 122.042 C-45.719 122.629 -44.228 123.217 -42.738 123.805 C-42.39 123.937 -42.39 123.937 -40.626 124.609 C-38.944 125.281 -37.309 126.071 -35.688 126.879 C-34.325 130.967 -35.803 133.482 -37.312 137.316 C-37.964 139.024 -38.614 140.732 -39.262 142.441 C-39.639 143.433 -40.015 144.424 -40.404 145.445 C-41.894 149.432 -43.336 153.434 -44.77 157.441 C-45.041 158.201 -45.313 158.96 -45.593 159.742 C-46.153 161.308 -46.714 162.874 -47.274 164.441 C-52.143 178.033 -57.143 191.544 -62.688 204.879 C-69.296 204.401 -74.521 203.112 -80.562 200.441 C-81.373 200.09 -82.184 199.739 -83.02 199.377 C-103.203 190.467 -125.66 179.266 -137.688 159.879 C-137.854 159.618 -137.854 159.618 -138.698 158.296 C-142.996 150.362 -142.247 141.633 -142.184 132.879 C-142.184 131.116 -142.185 129.354 -142.188 127.592 C-142.189 123.903 -142.177 120.215 -142.154 116.527 C-142.126 111.848 -142.128 107.171 -142.141 102.492 C-142.148 98.851 -142.14 95.209 -142.128 91.568 C-142.123 89.846 -142.123 88.124 -142.127 86.402 C-142.162 57.61 -134.596 30.866 -114.125 9.691 C-84.462 -19.654 -33.524 -26.29 0 0 Z " fill="#E2231A" transform="translate(266.6875,280.12109375)"/>
<path d="M0 0 C0 0.66 0 1.32 0 2 C-2.163 3.446 -4.331 4.794 -6.562 6.125 C-12.443 9.791 -16.895 13.348 -21 19 C-21.82 20.087 -22.641 21.175 -23.461 22.262 C-35.239 38.096 -35.239 38.096 -36.562 46.625 C-35.631 52.216 -33.633 56.409 -29.562 60.375 C-23.223 64.395 -17.371 64.867 -10 64 C-2.746 61.799 2.472 57.145 7.871 51.988 C12.5 47.665 16.055 47.415 22.237 47.355 C26.809 47.514 29.263 48.28 32.438 51.562 C32.952 52.224 33.466 52.885 33.996 53.566 C36.363 56.441 39.023 58.708 41.844 61.128 C45.347 64.169 48.697 67.371 52.062 70.562 C53.557 71.974 55.052 73.386 56.547 74.797 C57.291 75.5 58.036 76.203 58.803 76.928 C62.13 80.066 65.469 83.191 68.812 86.312 C69.12 86.6 69.12 86.6 70.675 88.052 C74.032 91.182 77.407 94.29 80.804 97.377 C83.215 99.572 85.607 101.787 88 104 C88.967 104.877 89.934 105.753 90.93 106.656 C91.84 107.512 92.75 108.368 93.688 109.25 C94.496 109.998 95.304 110.745 96.137 111.516 C98.548 114.73 98.914 117.01 99 121 C97.663 124.056 95.658 126.012 93 128 C89.75 128.938 89.75 128.938 86 128 C78.004 123.082 71.3 115.701 64.492 109.277 C61.293 106.263 58.045 103.32 54.703 100.465 C53.485 99.417 52.289 98.344 51.109 97.254 C50.496 96.696 49.882 96.138 49.25 95.562 C48.984 95.316 48.984 95.316 47.641 94.066 C46 93 46 93 42 93 C41.594 95.102 41.594 95.102 42 98 C43.892 100.427 46.179 102.366 48.5 104.375 C49.147 104.954 49.794 105.534 50.461 106.131 C52.295 107.768 54.144 109.387 56 111 C56.732 111.642 57.464 112.284 58.219 112.945 C59.407 113.982 60.596 115.019 61.785 116.055 C62.516 116.697 63.247 117.339 64 118 C64.553 118.485 65.106 118.97 65.675 119.47 C67.607 121.176 69.523 122.899 71.438 124.625 C71.752 124.901 71.752 124.901 73.342 126.295 C77.761 130.316 77.761 130.316 78.957 133.734 C79.026 137.358 77.829 139.839 75.75 142.75 C73.163 144.598 71.159 144.874 68 145 C64.291 143.094 61.367 140.692 58.312 137.875 C57.44 137.076 56.567 136.277 55.668 135.453 C54.788 134.644 53.907 133.834 53 133 C50.555 130.8 48.104 128.606 45.652 126.414 C43.702 124.639 41.783 122.847 39.879 121.023 C39.348 120.521 38.818 120.019 38.271 119.501 C37.239 118.523 36.214 117.536 35.198 116.542 C32.237 113.75 30.087 112.357 26 112 C25.719 114.195 25.719 114.195 26 117 C27.906 119.43 27.906 119.43 30.5 121.875 C31.42 122.75 32.341 123.626 33.289 124.527 C36.088 127.08 38.903 129.603 41.777 132.07 C44.702 134.61 47.573 137.205 50.438 139.812 C50.97 140.293 51.503 140.774 52.052 141.269 C56.816 145.618 56.816 145.618 57.375 149.812 C57 153 57 153 54.938 155.875 C51.206 158.574 49.537 158.54 45 158 C42.594 156.417 40.755 155 38.688 153.062 C38.129 152.565 37.571 152.067 36.996 151.554 C35.316 150.051 33.658 148.527 32 147 C30.209 145.395 28.417 143.791 26.625 142.188 C24.394 140.174 22.169 138.157 19.969 136.109 C15.437 132 15.437 132 11 132 C11 133.65 11 135.3 11 137 C9.52 136.524 8.041 136.044 6.562 135.562 C5.739 135.296 4.915 135.029 4.066 134.754 C2 134 2 134 1 133 C0.868 131.607 0.769 130.21 0.688 128.812 C0.201 124.24 -0.892 121.517 -4 118 C-7.998 114.972 -12.001 113.488 -17 113 C-17.159 112.408 -17.317 111.817 -17.48 111.207 C-19.465 104.484 -22.083 100.945 -28 97 C-30.107 97.087 -32.212 97.241 -34.312 97.438 C-40.401 97.573 -40.401 97.573 -42.977 95.109 C-43.948 93.499 -44.879 91.862 -45.766 90.203 C-47.632 86.873 -49.36 86.03 -53 85 C-60.179 84.152 -65.186 84.61 -71 89 C-73.438 91.75 -73.438 91.75 -75 94 C-78.937 92.688 -81.227 91.081 -84 88 C-81.497 78.912 -78.177 70.131 -74.875 61.312 C-74.295 59.757 -73.716 58.202 -73.136 56.647 C-68.555 44.38 -63.847 32.165 -59 20 C-57.928 20.082 -56.855 20.165 -55.75 20.25 C-44.006 20.174 -32.439 13.176 -22 8.312 C-19.769 7.277 -17.537 6.244 -15.304 5.214 C-13.926 4.579 -12.551 3.94 -11.177 3.298 C-4.042 0 -4.042 0 0 0 Z " fill="#E2231A" transform="translate(304,394)"/>
<path d="M0 0 C14.073 -0.673 26.639 4.522 37.125 13.586 C47.291 23.302 53.825 34.86 54.426 49.149 C54.501 64.077 49.168 77.362 38.812 88.211 C27.97 97.689 14.259 103.029 -0.234 102.562 C-15.869 100.701 -29.011 94.366 -39.012 81.945 C-40.533 79.753 -41.891 77.543 -43.188 75.211 C-43.382 74.863 -43.382 74.863 -44.367 73.102 C-50.255 61.326 -50.649 46.986 -46.562 34.586 C-40.581 19.888 -30.918 10.272 -16.648 3.586 C-11.104 1.383 -5.891 0.568 0 0 Z " fill="#1C1C1E" transform="translate(429.1875,149.7890625)"/>
<path d="M0 0 C9.842 9.551 15.561 21.135 15.982 34.859 C16.085 49.426 12.286 62.229 2.18 73.199 C-7.852 82.819 -20.758 88.561 -34.688 89.188 C-46.134 88.806 -57.208 85.552 -66.438 78.75 C-67.046 78.334 -67.654 77.917 -68.281 77.488 C-77.834 70.259 -84.481 58.411 -86.438 46.75 C-87.975 32.283 -85.375 18.553 -76.438 6.75 C-56.272 -16.326 -23.981 -20.269 0 0 Z " fill="#E2231A" transform="translate(251.4375,163.25)"/>
<path d="M0 0 C0.626 0.288 1.252 0.576 1.896 0.873 C3.225 1.485 4.55 2.102 5.874 2.724 C8.636 4.021 11.409 5.293 14.181 6.566 C15.561 7.2 16.94 7.834 18.319 8.47 C23.834 11.011 29.383 13.456 34.98 15.809 C35.691 16.11 36.401 16.412 37.132 16.723 C44.868 19.955 51.629 22.583 60.105 22.121 C65.064 32.931 69.166 44.074 73.373 55.192 C74.131 57.188 74.894 59.183 75.657 61.177 C76.964 64.592 78.257 68.013 79.541 71.437 C80.04 72.762 80.543 74.085 81.051 75.406 C81.762 77.261 82.455 79.123 83.148 80.984 C83.35 81.517 83.35 81.517 84.368 84.212 C85.163 87.348 85.066 89.062 84.105 92.121 C79.675 99.39 73.893 102.601 66.059 105.441 C63.118 106.118 61.838 106.281 59.105 105.121 C56.854 103.639 55.095 101.975 53.105 100.121 C53.105 99.461 53.105 98.801 53.105 98.121 C52.533 97.877 51.961 97.634 51.371 97.383 C48.701 95.896 46.967 94.14 44.855 91.934 C42.14 89.157 39.431 86.459 36.48 83.934 C32.504 80.519 28.679 76.955 24.855 73.371 C13.73 62.946 13.73 62.946 8.227 58.086 C5.799 55.876 3.696 53.507 1.578 51 C-7.408 40.803 -7.408 40.803 -13.598 39.592 C-21.297 39.302 -30.024 40.489 -36.203 45.43 C-38.707 47.996 -38.707 47.996 -40.887 50.668 C-44.609 55.216 -48.93 57.667 -54.727 58.555 C-59.285 58.756 -62.058 58.623 -66.02 56.246 C-68.855 53.032 -68.855 53.032 -68.976 50.24 C-68.511 43.696 -66.277 40.033 -62.145 35.059 C-61.084 33.737 -60.027 32.413 -58.973 31.086 C-58.45 30.437 -57.927 29.788 -57.389 29.119 C-55.891 27.117 -54.676 25.07 -53.441 22.898 C-50.938 18.789 -48.101 16.93 -43.895 14.746 C-36.297 10.512 -29.683 5.548 -22.895 0.121 C-15.377 -5.69 -8.261 -3.857 0 0 Z " fill="#1C1C1E" transform="translate(344.89453125,391.87890625)"/>
<path d="M0 0 C2.329 1.63 4.255 3.152 6.312 5.062 C7.453 6.075 8.595 7.087 9.738 8.098 C10.016 8.347 10.016 8.347 11.42 9.606 C13.551 11.486 15.765 13.246 18 15 C22.453 18.529 26.787 22.182 31.113 25.863 C34.546 28.78 38.006 31.657 41.5 34.5 C47.169 39.117 52.745 43.837 58.316 48.571 C60.603 50.512 62.894 52.449 65.187 54.384 C66.301 55.326 67.412 56.272 68.52 57.222 C70.746 59.125 72.971 60.979 75.336 62.707 C78.847 65.308 80.455 67.314 81.188 71.562 C81.278 74.708 80.972 76.06 79.625 79 C76.548 81.345 74.537 82.356 70.672 82.57 C64.473 81.247 59.656 76.068 55 72 C53.839 71.014 52.676 70.029 51.512 69.047 C48.567 66.551 45.647 64.028 42.732 61.498 C39.941 59.084 37.129 56.696 34.312 54.312 C33.775 53.858 33.237 53.403 32.684 52.934 C28.433 49.346 24.13 45.827 19.816 42.316 C16.662 39.722 13.548 37.084 10.438 34.438 C5.768 30.466 1.03 26.598 -3.77 22.785 C-12.669 15.663 -12.669 15.663 -14 13 C-14.702 5.868 -14.702 5.868 -11.625 2.062 C-7.305 -1.332 -5.401 -1.259 0 0 Z " fill="#FFFFFF" transform="translate(663,541)"/>
<path d="M0 0 C3.062 2.562 3.062 2.562 5 6 C5.354 10.779 3.997 13.346 1 16.875 C-0.319 18.264 -1.653 19.638 -3 21 C-3.744 21.793 -4.488 22.586 -5.254 23.402 C-12.89 31.374 -12.89 31.374 -18 33 C-21.641 33 -22.914 32.067 -25.812 29.812 C-28.448 26.424 -28.467 25.192 -28 21 C-22.663 11.758 -11.768 -2.336 0 0 Z " fill="#1C1C1E" transform="translate(273,499)"/>
<path d="M0 0 C3.755 2.041 4.775 3.284 6.062 7.375 C5.936 14.687 -0.186 19.47 -5.125 24.312 C-5.758 24.945 -6.391 25.577 -7.043 26.229 C-12.727 31.859 -12.727 31.859 -16.812 32.312 C-20.884 31.913 -22.308 31.076 -25 28 C-26.002 25.261 -26.457 22.888 -26 20 C-23.188 14.991 -19.442 11.168 -15.375 7.188 C-15.082 6.895 -15.082 6.895 -13.602 5.416 C-8.849 0.712 -6.78 -0.575 0 0 Z " fill="#1C1C1E" transform="translate(291,516)"/>
<path d="M0 0 C1.642 3.466 1.885 6.663 1.125 10.375 C-0.63 13.106 -2.844 15.153 -5.25 17.312 C-5.853 17.888 -6.457 18.464 -7.078 19.057 C-12.59 24.256 -12.59 24.256 -17.25 24.688 C-20.875 24.375 -20.875 24.375 -23.25 22.812 C-25.41 19.572 -25.807 17.258 -25.875 13.375 C-23.796 9.126 -20.762 5.927 -17.438 2.625 C-16.96 2.131 -16.482 1.638 -15.99 1.129 C-10.784 -4.084 -5.986 -5.188 0 0 Z " fill="#1C1C1E" transform="translate(252.875,489.625)"/>
<path d="M0 0 C2.875 1.562 2.875 1.562 5 4 C6.091 7.75 6.559 9.884 4.785 13.426 C2.88 16.173 0.822 18.409 -1.562 20.75 C-2.348 21.529 -3.133 22.307 -3.941 23.109 C-6.674 25.619 -7.611 25.964 -11.375 26.312 C-15 26 -15 26 -17.375 24.438 C-19.535 21.197 -19.932 18.883 -20 15 C-17.997 11.007 -15.323 7.908 -12.25 4.688 C-11.84 4.246 -11.84 4.246 -9.766 2.012 C-6.254 -0.543 -4.254 -0.496 0 0 Z " fill="#1C1C1E" transform="translate(306,536)"/>
<path d="M0 0 C4.856 3.443 9.2 7.043 13.328 11.332 C14.935 12.935 16.598 14.341 18.375 15.75 C21 18 21 18 22 21 C21.264 24.926 20.583 26.556 17.375 29 C12.981 30.302 10.15 29.861 6 28 C3.769 26.478 1.969 24.871 0 23 C0.228 22.455 0.456 21.909 0.691 21.348 C3.351 14.371 3.382 8.984 0.938 1.938 C0.628 1.298 0.319 0.659 0 0 Z " fill="#E2231A" transform="translate(317,533)"/>
</svg>
