<?xml version="1.0" encoding="UTF-8"?>
<!-- Generator: visioncortex VTracer 0.6.12 -->
<svg version="1.1" xmlns="http://www.w3.org/2000/svg" width="952" height="1101" viewBox="0 0 952 1101" preserveAspectRatio="xMidYMid meet">

<path d="M0 0 C1.83 0.017 3.659 0.111 5.484 0.234 C6.06 0.273 6.06 0.273 8.975 0.47 C80.592 5.787 148.289 31.502 202 80 C202.613 80.552 203.227 81.103 203.858 81.671 C232.765 107.799 255.375 138.755 272 174 C272.332 174.702 272.665 175.404 273.007 176.127 C309.781 254.481 310.24 344.536 281.371 425.324 C276.109 439.434 269.863 453.146 262.363 466.207 C261 469 261 469 261 473 C262.695 474.719 262.695 474.719 265.125 476.5 C270.239 480.377 275.089 484.472 279.913 488.699 C283.786 492.059 287.789 495.073 292 498 C292.241 497.448 292.482 496.897 292.73 496.328 C294.289 493.47 296.176 491.206 298.312 488.75 C299.072 487.858 299.831 486.966 300.613 486.047 C303 484 303 484 305.348 483.332 C309.507 484.38 312.029 487.066 315.125 489.938 C316.468 491.143 317.811 492.348 319.156 493.551 C319.812 494.143 320.469 494.736 321.145 495.346 C323.578 497.515 326.089 499.577 328.625 501.625 C332.627 504.867 336.576 508.164 340.5 511.5 C344.469 514.873 348.46 518.212 352.5 521.5 C357.105 525.248 361.64 529.07 366.164 532.914 C370.465 536.563 374.823 540.136 379.199 543.695 C382.268 546.22 385.29 548.795 388.312 551.375 C392.771 555.176 397.309 558.846 401.938 562.438 C407.35 566.638 412.574 571.012 417.737 575.515 C421.251 578.562 424.846 581.443 428.557 584.247 C439.808 592.778 447.955 602.443 450.684 616.629 C452.685 631.627 448.283 643.099 439.75 655.188 C430.552 664.595 419.26 669.408 406.137 670.094 C391.706 669.662 380.832 664.075 370.52 654.348 C367.988 651.989 365.377 649.801 362.688 647.625 C358.58 644.3 354.525 640.923 350.5 637.5 C345.627 633.359 340.705 629.284 335.746 625.246 C331.794 622.013 327.88 618.735 323.961 615.461 C321.197 613.164 318.415 610.891 315.625 608.625 C311.416 605.195 307.293 601.678 303.188 598.125 C297.908 593.559 292.496 589.213 286.978 584.941 C282.588 581.519 278.456 577.879 274.355 574.113 C271.206 571.288 267.913 568.672 264.594 566.051 C261.73 563.787 258.893 561.493 256.062 559.188 C255.167 558.459 254.271 557.731 253.348 556.98 C251.461 555.389 249.703 553.782 248 552 C249.816 546.531 253.281 542.916 257.004 538.621 C258.813 536.245 259.61 534.905 260 532 C253.677 526.794 247.323 521.629 240.938 516.5 C240.283 515.972 239.628 515.444 238.953 514.899 C234.233 511.116 234.233 511.116 232 510 C231.747 510.561 231.495 511.121 231.234 511.699 C225.533 522.326 215.27 531.334 207 540 C206.245 540.798 205.489 541.596 204.711 542.418 C200.39 546.873 195.729 550.79 190.887 554.668 C189.011 556.183 187.158 557.726 185.332 559.301 C170.621 571.978 154.436 582.377 137.421 591.67 C135.227 592.876 133.053 594.111 130.883 595.359 C94.233 616.062 42.541 632.151 0 629 C-1.706 627.294 -1.128 625.093 -1.129 622.762 C-1.133 621.644 -1.136 620.526 -1.139 619.374 C-1.137 618.158 -1.135 616.941 -1.133 615.688 C-1.134 614.448 -1.135 613.209 -1.136 611.932 C-1.136 609.306 -1.135 606.68 -1.13 604.054 C-1.125 600.681 -1.128 597.308 -1.134 593.935 C-1.138 590.727 -1.135 587.52 -1.133 584.312 C-1.135 583.096 -1.137 581.879 -1.139 580.626 C-1.136 579.508 -1.133 578.39 -1.129 577.238 C-1.129 576.249 -1.128 575.259 -1.127 574.24 C-1 572 -1 572 0 571 C1.546 570.831 3.099 570.723 4.652 570.641 C72.815 566.451 133.958 535.597 179.621 485.102 C193.451 468.608 205.723 450.547 214.978 431.113 C216.002 428.996 217.07 426.906 218.148 424.816 C248.07 365.832 251.563 294.335 232.082 231.641 C221.84 200.36 205.425 166.369 181.258 143.34 C180 142 180 142 180 140 C179.34 140 178.68 140 178 140 C176.766 138.707 176.766 138.707 175.25 136.812 C166.179 126.179 155.296 117.165 144 109 C143.411 108.57 142.821 108.14 142.214 107.697 C117.259 89.618 89.69 76.264 60 68 C59.172 67.766 58.344 67.532 57.49 67.291 C38.413 62.009 18.654 59.924 -1 58 C-1.023 50.585 -1.041 43.171 -1.052 35.756 C-1.057 32.314 -1.064 28.871 -1.075 25.428 C-1.088 21.474 -1.093 17.52 -1.098 13.566 C-1.103 12.325 -1.108 11.083 -1.113 9.804 C-1.113 8.663 -1.113 7.522 -1.114 6.346 C-1.116 5.336 -1.118 4.325 -1.12 3.284 C-1 1 -1 1 0 0 Z " fill="#1C1C1D" transform="translate(465,12)"/>
<path d="M0 0 C0.896 3.073 1.126 5.816 1.129 9.012 C1.133 10.006 1.136 11.001 1.139 12.025 C1.138 12.559 1.138 12.559 1.133 15.258 C1.133 15.808 1.133 15.808 1.136 18.589 C1.136 20.911 1.135 23.233 1.13 25.554 C1.125 29.118 1.13 32.682 1.137 36.246 C1.136 38.5 1.135 40.754 1.133 43.008 C1.135 44.079 1.137 45.149 1.139 46.253 C1.136 47.241 1.133 48.229 1.129 49.247 C1.129 49.682 1.129 49.682 1.127 51.888 C1 54 1 54 0 56 C-2.835 56.945 -5.143 57.291 -8.102 57.578 C-63.506 63.261 -117.061 82.156 -158.473 120.656 C-160.673 122.697 -162.91 124.672 -165.188 126.625 C-172.974 133.43 -179.588 140.896 -186 149 C-186.782 149.966 -187.565 150.931 -188.371 151.926 C-230.376 204.818 -248.492 273.823 -240.875 340.625 C-232.467 406.219 -199.859 471.021 -147 512 C-146.042 512.775 -145.084 513.549 -144.098 514.348 C-130.781 524.944 -116.361 533.796 -100.974 541.048 C-99.546 541.737 -98.129 542.449 -96.719 543.174 C-90.44 546.406 -84.06 549.054 -77.438 551.5 C-76.38 551.891 -75.323 552.282 -74.234 552.685 C-52.587 560.596 -30.381 565.815 -7.321 567.368 C-1.194 567.806 -1.194 567.806 1 570 C1.247 572.277 1.247 572.277 1.243 575.152 C1.246 576.227 1.249 577.301 1.252 578.408 C1.249 578.991 1.249 578.991 1.23 581.938 C1.23 583.129 1.23 584.32 1.229 585.547 C1.226 588.069 1.218 590.59 1.206 593.112 C1.188 596.984 1.185 600.855 1.186 604.727 C1.181 607.172 1.175 609.617 1.168 612.062 C1.167 613.227 1.166 614.392 1.165 615.592 C1.158 616.666 1.152 617.741 1.145 618.848 C1.141 619.796 1.138 620.745 1.134 621.723 C1 624 1 624 0 626 C-24.104 625.302 -47.744 621.221 -71 615 C-71.766 614.803 -72.533 614.607 -73.322 614.404 C-91.856 609.635 -110 602.166 -126.861 593.144 C-128.42 592.31 -129.983 591.485 -131.549 590.665 C-143.94 584.171 -155.71 577.264 -167 569 C-168.053 568.241 -169.106 567.481 -170.191 566.699 C-188.995 552.897 -206.922 536.813 -222 519 C-222.797 518.092 -223.593 517.185 -224.414 516.25 C-263.937 470.942 -290.288 411.87 -297.724 352.216 C-297.907 350.746 -298.101 349.278 -298.308 347.811 C-306.343 289.952 -295.636 229.632 -271 177 C-270.619 176.179 -270.238 175.358 -269.846 174.513 C-250.879 134.04 -221.428 95.475 -186 68 C-185.23 67.363 -184.461 66.726 -183.668 66.07 C-133.978 25.033 -64.678 -1.606 0 0 Z " fill="#E2231A" transform="translate(437,14)"/>
<path d="M0 0 C73.92 0 147.84 0 224 0 C224.021 32.979 224.041 65.959 224.062 99.938 C224.072 110.37 224.081 120.802 224.09 131.551 C224.095 144.241 224.095 144.241 224.095 150.173 C224.096 154.336 224.1 158.5 224.106 162.663 C224.112 167.963 224.114 173.263 224.113 178.563 C224.113 180.514 224.115 182.466 224.119 184.418 C224.124 187.041 224.123 189.664 224.12 192.287 C224.123 193.062 224.126 193.837 224.129 194.636 C224.114 199.886 224.114 199.886 223 201 C220.132 201.1 217.289 201.134 214.421 201.127 C213.51 201.129 212.599 201.13 211.661 201.132 C208.584 201.136 205.508 201.133 202.432 201.129 C200.236 201.131 198.041 201.133 195.845 201.135 C189.864 201.139 183.883 201.137 177.901 201.134 C171.657 201.132 165.413 201.134 159.169 201.136 C148.007 201.138 136.846 201.135 125.685 201.129 C115.556 201.125 105.426 201.126 95.296 201.13 C83.547 201.136 71.797 201.138 60.048 201.135 C53.823 201.133 47.598 201.133 41.374 201.136 C35.523 201.139 29.673 201.137 23.822 201.131 C21.668 201.13 19.514 201.13 17.36 201.133 C14.433 201.135 11.506 201.132 8.579 201.127 C7.715 201.129 6.851 201.131 5.961 201.134 C0.114 201.114 0.114 201.114 -1 200 C-1.1 197.45 -1.134 194.927 -1.127 192.376 C-1.129 191.568 -1.13 190.76 -1.132 189.928 C-1.136 187.199 -1.133 184.471 -1.129 181.742 C-1.131 179.795 -1.133 177.847 -1.135 175.9 C-1.139 170.594 -1.137 165.288 -1.134 159.983 C-1.132 154.442 -1.134 148.902 -1.136 143.361 C-1.138 134.054 -1.135 124.747 -1.13 115.44 C-1.125 104.666 -1.127 93.892 -1.132 83.118 C-1.137 73.884 -1.137 64.65 -1.135 55.416 C-1.133 49.894 -1.133 44.372 -1.136 38.85 C-1.139 33.658 -1.137 28.467 -1.131 23.275 C-1.13 21.365 -1.13 19.455 -1.133 17.545 C-1.135 14.947 -1.132 12.349 -1.127 9.751 C-1.129 8.987 -1.131 8.223 -1.134 7.436 C-1.114 2.228 -1.114 2.228 0 0 Z " fill="#E2231A" transform="translate(500,683)"/>
<path d="M0 0 C29.058 -0.023 58.117 -0.041 87.175 -0.052 C89.857 -0.053 92.539 -0.054 95.221 -0.055 C95.888 -0.055 96.554 -0.055 97.241 -0.056 C108.049 -0.06 118.857 -0.068 129.665 -0.077 C140.747 -0.086 151.83 -0.092 162.912 -0.094 C169.14 -0.095 175.368 -0.098 181.596 -0.106 C187.45 -0.112 193.305 -0.115 199.159 -0.113 C201.315 -0.113 203.471 -0.115 205.626 -0.119 C208.555 -0.124 211.485 -0.123 214.414 -0.12 C215.279 -0.123 216.143 -0.126 217.034 -0.129 C222.886 -0.114 222.886 -0.114 224 1 C224.1 3.565 224.134 6.103 224.127 8.668 C224.129 9.481 224.13 10.294 224.132 11.131 C224.136 13.876 224.133 16.621 224.129 19.365 C224.131 21.324 224.133 23.283 224.135 25.243 C224.139 30.579 224.137 35.916 224.134 41.252 C224.132 46.824 224.134 52.396 224.136 57.967 C224.138 67.326 224.135 76.684 224.13 86.042 C224.125 96.879 224.127 107.715 224.132 118.552 C224.137 127.838 224.137 137.123 224.135 146.409 C224.133 151.963 224.133 157.517 224.136 163.071 C224.139 168.291 224.137 173.511 224.131 178.731 C224.13 180.653 224.13 182.575 224.133 184.497 C224.135 187.108 224.132 189.72 224.127 192.332 C224.129 193.102 224.131 193.873 224.134 194.667 C224.114 199.886 224.114 199.886 223 201 C220.132 201.1 217.289 201.134 214.421 201.127 C213.51 201.129 212.599 201.13 211.661 201.132 C208.584 201.136 205.508 201.133 202.432 201.129 C200.236 201.131 198.041 201.133 195.845 201.135 C189.864 201.139 183.883 201.137 177.901 201.134 C171.657 201.132 165.413 201.134 159.169 201.136 C148.007 201.138 136.846 201.135 125.685 201.129 C115.556 201.125 105.426 201.126 95.296 201.13 C83.547 201.136 71.797 201.138 60.048 201.135 C53.823 201.133 47.598 201.133 41.374 201.136 C35.523 201.139 29.673 201.137 23.822 201.131 C21.668 201.13 19.514 201.13 17.36 201.133 C14.433 201.135 11.506 201.132 8.579 201.127 C7.715 201.129 6.851 201.131 5.961 201.134 C0.114 201.114 0.114 201.114 -1 200 C-1.1 197.45 -1.134 194.927 -1.127 192.376 C-1.129 191.568 -1.13 190.76 -1.132 189.928 C-1.136 187.199 -1.133 184.471 -1.129 181.742 C-1.131 179.795 -1.133 177.847 -1.135 175.9 C-1.139 170.594 -1.137 165.288 -1.134 159.983 C-1.132 154.442 -1.134 148.902 -1.136 143.361 C-1.138 134.054 -1.135 124.747 -1.13 115.44 C-1.125 104.666 -1.127 93.892 -1.132 83.118 C-1.137 73.884 -1.137 64.65 -1.135 55.416 C-1.133 49.894 -1.133 44.372 -1.136 38.85 C-1.139 33.658 -1.137 28.467 -1.131 23.275 C-1.13 21.365 -1.13 19.455 -1.133 17.545 C-1.135 14.947 -1.132 12.349 -1.127 9.751 C-1.129 8.987 -1.131 8.223 -1.134 7.436 C-1.114 2.228 -1.114 2.228 0 0 Z " fill="#1C1C1D" transform="translate(257,683)"/>
<path d="M0 0 C0.771 0.001 1.543 0.003 2.337 0.005 C3.168 0.011 3.999 0.018 4.855 0.025 C5.75 0.028 6.645 0.032 7.568 0.035 C10.562 0.047 13.556 0.066 16.55 0.086 C18.699 0.096 20.847 0.106 22.996 0.115 C28.826 0.141 34.656 0.174 40.486 0.208 C46.58 0.242 52.674 0.271 58.768 0.3 C70.306 0.356 81.844 0.418 93.383 0.481 C108.975 0.566 124.568 0.643 140.161 0.721 C164.726 0.843 189.292 0.976 213.857 1.107 C213.857 67.437 213.857 133.767 213.857 202.107 C139.937 202.107 66.017 202.107 -10.143 202.107 C-10.143 135.777 -10.143 69.447 -10.143 1.107 C-3.393 -0.018 -3.393 -0.018 0 0 Z " fill="#E2231A" transform="translate(24.142873764038086,681.8925695419312)"/>
<path d="M0 0 C1.29 0.001 2.579 0.002 3.908 0.003 C4.266 0.002 4.266 0.002 6.076 0 C8.491 -0.001 10.907 0.004 13.322 0.01 C15.046 0.01 16.77 0.01 18.495 0.009 C23.191 0.009 27.887 0.015 32.583 0.022 C37.485 0.028 42.387 0.028 47.289 0.03 C56.579 0.033 65.868 0.041 75.158 0.051 C85.731 0.062 96.304 0.068 106.877 0.073 C128.633 0.083 150.388 0.101 172.144 0.123 C173.471 2.777 173.27 4.774 173.271 7.748 C173.274 8.944 173.277 10.14 173.279 11.372 C173.278 12.032 173.278 12.032 173.273 15.369 C173.275 16.767 173.276 18.165 173.279 19.562 C173.283 23.364 173.281 27.165 173.278 30.967 C173.276 34.938 173.278 38.91 173.28 42.881 C173.281 49.55 173.279 56.219 173.274 62.888 C173.269 70.609 173.271 78.329 173.276 86.05 C173.281 92.669 173.281 99.289 173.279 105.908 C173.277 109.865 173.277 113.823 173.28 117.781 C173.283 121.5 173.281 125.219 173.275 128.938 C173.274 130.306 173.274 131.675 173.277 133.043 C173.279 134.904 173.275 136.765 173.271 138.625 C173.271 139.147 173.271 139.147 173.27 141.788 C173.144 144.123 173.144 144.123 172.144 145.123 C169.878 145.22 167.61 145.245 165.342 145.243 C164.982 145.244 164.982 145.244 163.162 145.246 C160.732 145.248 158.303 145.242 155.874 145.237 C154.14 145.236 152.406 145.236 150.672 145.237 C145.949 145.237 141.226 145.231 136.503 145.224 C131.573 145.218 126.643 145.218 121.713 145.216 C112.37 145.213 103.027 145.205 93.685 145.195 C83.051 145.184 72.418 145.178 61.784 145.173 C39.904 145.163 18.024 145.145 -3.856 145.123 C-3.879 126.365 -3.897 107.607 -3.908 88.849 C-3.913 80.14 -3.92 71.431 -3.932 62.722 C-3.941 55.134 -3.948 47.546 -3.95 39.958 C-3.951 35.938 -3.955 31.917 -3.962 27.897 C-3.969 24.117 -3.971 20.338 -3.969 16.558 C-3.969 15.167 -3.971 13.776 -3.975 12.384 C-3.98 10.493 -3.978 8.602 -3.976 6.71 C-3.977 5.649 -3.978 4.588 -3.979 3.495 C-3.799 0.014 -3.529 0.152 0 0 Z " fill="#1D1C1D" transform="translate(17.856087684631348,943.8769521713257)"/>
<path d="M0 0 C9.249 7.735 17.15 15.712 23 26.312 C23.607 27.406 24.214 28.499 24.84 29.625 C34.535 47.99 36.315 66.632 36.406 87.012 C36.409 87.445 36.409 87.445 36.423 89.639 C36.453 94.217 36.472 98.794 36.48 103.371 C36.491 108.065 36.54 112.758 36.596 117.451 C36.634 121.097 36.644 124.742 36.647 128.387 C36.653 130.117 36.669 131.847 36.696 133.577 C36.843 143.951 36.378 151.617 30 160.312 C29.58 160.898 29.16 161.483 28.728 162.086 C14.682 180.215 -7.627 190.942 -28.5 199 C-29.378 199.339 -30.256 199.679 -31.161 200.028 C-35.323 201.564 -38.517 202.484 -43 202.312 C-47.573 191.315 -51.664 180.147 -55.739 168.958 C-58.008 162.732 -60.291 156.513 -62.641 150.316 C-63.05 149.236 -63.46 148.156 -63.882 147.043 C-64.645 145.036 -65.412 143.03 -66.183 141.026 C-68.157 135.831 -69.775 130.735 -71 125.312 C-61.629 120.827 -52.143 116.933 -42.438 113.25 C-34.972 110.405 -27.507 107.557 -20.098 104.566 C-19.135 104.179 -18.172 103.792 -17.18 103.393 C-15 102.312 -15 102.312 -14 100.312 C-13.913 97.323 -13.884 94.357 -13.902 91.367 C-13.904 90.482 -13.905 89.597 -13.907 88.685 C-13.912 85.853 -13.925 83.02 -13.938 80.188 C-13.943 78.27 -13.947 76.352 -13.951 74.434 C-13.962 69.727 -13.979 65.02 -14 60.312 C-16.343 60.568 -18.678 60.905 -21 61.312 C-22.476 64.265 -22.223 66.997 -22.316 70.289 C-22.327 70.632 -22.327 70.632 -22.379 72.366 C-22.445 74.556 -22.504 76.747 -22.562 78.938 C-22.606 80.422 -22.649 81.906 -22.693 83.391 C-22.8 87.031 -22.902 90.672 -23 94.312 C-28.686 96.604 -34.38 98.86 -40.125 101 C-41.503 101.514 -42.88 102.029 -44.258 102.543 C-45.006 102.822 -45.754 103.101 -46.524 103.388 C-50.311 104.802 -54.095 106.222 -57.878 107.642 C-59.957 108.422 -62.037 109.198 -64.118 109.973 C-68.705 111.683 -73.279 113.408 -77.812 115.258 C-78.529 115.545 -79.246 115.831 -79.984 116.127 C-81.849 116.877 -83.706 117.645 -85.562 118.414 C-94.41 120.726 -101.874 116.565 -109.875 113.062 C-110.995 112.584 -112.115 112.106 -113.27 111.613 C-131.586 103.727 -131.586 103.727 -134 101.312 C-134.114 99.721 -134.16 98.124 -134.177 96.528 C-134.19 95.505 -134.203 94.482 -134.216 93.428 C-134.223 92.308 -134.231 91.189 -134.238 90.035 C-134.246 88.881 -134.254 87.726 -134.263 86.537 C-134.277 84.076 -134.287 81.615 -134.295 79.155 C-134.312 75.45 -134.356 71.746 -134.4 68.041 C-134.567 42.945 -130.934 21.979 -113 3.312 C-82.584 -26.377 -32.724 -25.224 0 0 Z " fill="#1C1C1D" transform="translate(615,282.6875)"/>
<path d="M0 0 C0.763 0.62 1.526 1.24 2.312 1.879 C2.622 2.101 2.622 2.101 4.188 3.227 C16.6 12.622 25.014 29.837 27.312 44.879 C27.572 49.476 27.546 54.061 27.508 58.664 C27.505 59.961 27.502 61.258 27.499 62.594 C27.492 66.012 27.472 69.429 27.45 72.847 C27.429 76.347 27.42 79.846 27.41 83.346 C27.389 90.19 27.355 97.035 27.312 103.879 C9.145 113.02 9.145 113.02 0.875 116.816 C0.069 117.201 -0.738 117.586 -1.568 117.982 C-9.834 121.766 -15.497 122.897 -24.242 119.816 C-26.692 118.856 -29.128 117.877 -31.562 116.879 C-32.854 116.366 -34.147 115.855 -35.441 115.345 C-38.007 114.334 -40.57 113.314 -43.13 112.289 C-47.848 110.419 -52.604 108.668 -57.375 106.941 C-63.525 104.693 -69.633 102.373 -75.688 99.879 C-76.385 99.615 -77.082 99.35 -77.801 99.078 C-79.465 98.428 -81.083 97.664 -82.688 96.879 C-83.809 93.513 -83.896 90.788 -84.004 87.242 C-84.046 85.943 -84.088 84.645 -84.131 83.307 C-84.171 81.935 -84.21 80.563 -84.25 79.191 C-84.293 77.808 -84.337 76.424 -84.381 75.041 C-84.487 71.654 -84.589 68.266 -84.688 64.879 C-86.5 63.816 -86.5 63.816 -88.688 62.879 C-89.678 63.209 -90.668 63.539 -91.688 63.879 C-92.882 67.461 -92.85 70.739 -92.855 74.469 C-92.857 74.839 -92.857 74.839 -92.866 76.714 C-92.871 78.28 -92.873 79.846 -92.873 81.412 C-92.875 83.804 -92.893 86.196 -92.912 88.588 C-92.915 90.111 -92.917 91.633 -92.918 93.156 C-92.925 93.87 -92.932 94.584 -92.94 95.319 C-92.923 98.967 -92.897 101.881 -90.688 104.879 C-88.038 106.186 -85.512 107.241 -82.75 108.254 C-80.963 108.942 -79.177 109.631 -77.391 110.32 C-76.361 110.712 -75.332 111.104 -74.271 111.508 C-67.634 114.047 -61.017 116.634 -54.408 119.245 C-52.012 120.187 -49.611 121.115 -47.209 122.042 C-45.719 122.629 -44.228 123.217 -42.738 123.805 C-42.39 123.937 -42.39 123.937 -40.626 124.609 C-38.944 125.281 -37.309 126.071 -35.688 126.879 C-34.325 130.967 -35.803 133.482 -37.312 137.316 C-37.964 139.024 -38.614 140.732 -39.262 142.441 C-39.639 143.433 -40.015 144.424 -40.404 145.445 C-41.894 149.432 -43.336 153.434 -44.77 157.441 C-45.041 158.201 -45.313 158.96 -45.593 159.742 C-46.153 161.308 -46.714 162.874 -47.274 164.441 C-52.143 178.033 -57.143 191.544 -62.688 204.879 C-69.296 204.401 -74.521 203.112 -80.562 200.441 C-81.373 200.09 -82.184 199.739 -83.02 199.377 C-103.203 190.467 -125.66 179.266 -137.688 159.879 C-137.854 159.618 -137.854 159.618 -138.698 158.296 C-142.996 150.362 -142.247 141.633 -142.184 132.879 C-142.184 131.116 -142.185 129.354 -142.188 127.592 C-142.189 123.903 -142.177 120.215 -142.154 116.527 C-142.126 111.848 -142.128 107.171 -142.141 102.492 C-142.148 98.851 -142.14 95.209 -142.128 91.568 C-142.123 89.846 -142.123 88.124 -142.127 86.402 C-142.162 57.61 -134.596 30.866 -114.125 9.691 C-84.462 -19.654 -33.524 -26.29 0 0 Z " fill="#E2231A" transform="translate(391.6875,280.12109375)"/>
<path d="M0 0 C22.018 -0.023 44.035 -0.041 66.053 -0.052 C76.275 -0.057 86.498 -0.064 96.72 -0.075 C105.626 -0.085 114.533 -0.092 123.439 -0.094 C128.158 -0.095 132.877 -0.098 137.596 -0.106 C142.032 -0.112 146.469 -0.115 150.905 -0.113 C152.538 -0.113 154.171 -0.115 155.804 -0.119 C158.024 -0.124 160.244 -0.123 162.464 -0.12 C163.709 -0.121 164.955 -0.122 166.238 -0.123 C169 0 169 0 170 1 C170.099 2.845 170.126 4.694 170.127 6.542 C170.13 7.746 170.133 8.949 170.136 10.188 C170.134 11.534 170.132 12.879 170.129 14.225 C170.131 15.632 170.133 17.039 170.135 18.447 C170.139 22.279 170.137 26.112 170.134 29.944 C170.132 33.946 170.134 37.948 170.136 41.951 C170.138 48.673 170.135 55.395 170.13 62.117 C170.125 69.899 170.127 77.682 170.132 85.465 C170.137 92.135 170.137 98.805 170.135 105.475 C170.133 109.464 170.133 113.453 170.136 117.442 C170.139 121.191 170.137 124.94 170.131 128.69 C170.13 130.07 170.13 131.45 170.133 132.83 C170.135 134.706 170.131 136.582 170.127 138.458 C170.127 138.984 170.127 138.984 170.126 141.646 C170 144 170 144 169 145 C166.838 145.099 164.673 145.126 162.509 145.127 C161.822 145.129 161.136 145.13 160.429 145.132 C158.113 145.136 155.797 145.133 153.48 145.129 C151.827 145.131 150.173 145.133 148.519 145.135 C144.015 145.139 139.511 145.137 135.007 145.134 C130.305 145.132 125.602 145.134 120.899 145.136 C113 145.138 105.101 145.135 97.202 145.13 C88.056 145.125 78.91 145.127 69.764 145.132 C61.926 145.137 54.089 145.137 46.251 145.135 C41.563 145.133 36.876 145.133 32.188 145.136 C27.782 145.139 23.376 145.137 18.97 145.131 C17.348 145.13 15.727 145.13 14.105 145.133 C11.9 145.135 9.696 145.132 7.491 145.127 C6.255 145.127 5.018 145.126 3.744 145.126 C1 145 1 145 0 144 C-1.268 135.805 -1.146 127.587 -1.133 119.316 C-1.133 117.742 -1.134 116.167 -1.136 114.593 C-1.137 111.265 -1.135 107.937 -1.13 104.609 C-1.125 100.543 -1.128 96.476 -1.134 92.41 C-1.171 61.6 -0.595 30.802 0 0 Z " fill="#E2231A" transform="translate(581,944)"/>
<path d="M0 0 C55.77 0 111.54 0 169 0 C170.322 2.644 170.126 4.618 170.127 7.58 C170.13 8.766 170.133 9.952 170.136 11.175 C170.135 11.829 170.135 11.829 170.129 15.139 C170.131 16.525 170.133 17.911 170.135 19.297 C170.139 23.068 170.137 26.838 170.134 30.609 C170.132 34.549 170.134 38.489 170.136 42.43 C170.138 49.047 170.135 55.665 170.13 62.283 C170.125 69.941 170.127 77.599 170.132 85.258 C170.137 91.825 170.137 98.392 170.135 104.96 C170.133 108.885 170.133 112.811 170.136 116.737 C170.139 120.427 170.137 124.118 170.131 127.808 C170.129 129.814 170.132 131.819 170.136 133.825 C170.133 135.012 170.13 136.198 170.127 137.42 C170.127 137.938 170.127 137.938 170.126 140.557 C170 143 170 143 169 145 C113.23 145 57.46 145 0 145 C0 97.15 0 49.3 0 0 Z " fill="#1D1C1D" transform="translate(393,944)"/>
<path d="M0 0 C54.45 0 108.9 0 165 0 C166.327 2.654 166.126 4.651 166.127 7.625 C166.13 8.821 166.133 10.017 166.136 11.249 C166.135 11.909 166.135 11.909 166.129 15.246 C166.131 16.644 166.133 18.042 166.135 19.439 C166.139 23.241 166.137 27.042 166.134 30.844 C166.132 34.815 166.134 38.787 166.136 42.758 C166.138 49.427 166.135 56.096 166.13 62.765 C166.125 70.486 166.127 78.206 166.132 85.927 C166.137 92.546 166.137 99.165 166.135 105.785 C166.133 109.742 166.133 113.7 166.136 117.658 C166.139 121.377 166.137 125.096 166.131 128.814 C166.13 130.183 166.13 131.552 166.133 132.92 C166.135 134.781 166.131 136.642 166.127 138.502 C166.127 139.024 166.127 139.024 166.126 141.665 C166 144 166 144 165 145 C162.861 145.097 160.719 145.122 158.578 145.12 C158.238 145.121 158.238 145.121 156.521 145.123 C154.23 145.125 151.939 145.119 149.648 145.114 C148.013 145.113 146.377 145.113 144.741 145.114 C140.287 145.114 135.833 145.108 131.378 145.101 C126.729 145.095 122.079 145.095 117.429 145.093 C108.617 145.09 99.806 145.082 90.994 145.072 C80.966 145.061 70.937 145.055 60.908 145.05 C40.272 145.04 19.636 145.022 -1 145 C-2.033 141.9 -2.128 139.766 -2.134 136.517 C-2.138 135.377 -2.142 134.237 -2.147 133.063 C-2.146 131.811 -2.146 130.56 -2.145 129.27 C-2.149 127.953 -2.152 126.636 -2.155 125.278 C-2.164 121.663 -2.167 118.047 -2.167 114.431 C-2.168 111.412 -2.172 108.393 -2.175 105.373 C-2.184 98.248 -2.186 91.123 -2.185 83.998 C-2.185 76.651 -2.195 69.305 -2.211 61.959 C-2.224 55.649 -2.229 49.34 -2.229 43.031 C-2.229 39.264 -2.231 35.497 -2.242 31.729 C-2.252 28.184 -2.252 24.639 -2.245 21.094 C-2.243 19.178 -2.251 17.261 -2.26 15.344 C-2.256 14.196 -2.252 13.047 -2.247 11.864 C-2.248 10.871 -2.248 9.877 -2.249 8.854 C-2 6 -2 6 0 0 Z " fill="#1E1C1D" transform="translate(770,944)"/>
<path d="M0 0 C0.612 0 0.612 0 3.707 0.003 C4.385 0.002 5.064 0.001 5.763 0 C8.054 -0.001 10.345 0.004 12.636 0.01 C14.272 0.01 15.907 0.01 17.543 0.009 C21.997 0.009 26.452 0.015 30.906 0.022 C35.556 0.028 40.206 0.028 44.856 0.03 C53.667 0.033 62.479 0.041 71.29 0.051 C81.319 0.062 91.348 0.068 101.377 0.073 C122.013 0.083 142.649 0.101 163.284 0.123 C163.417 12.018 163.548 23.913 163.676 35.808 C163.735 41.336 163.795 46.864 163.857 52.392 C164.329 94.653 164.329 94.653 164.373 114.166 C164.376 115.656 164.382 117.145 164.389 118.635 C164.398 120.672 164.4 122.708 164.4 124.745 C164.402 125.865 164.404 126.986 164.406 128.14 C164.233 133.811 163.72 139.466 163.284 145.123 C108.504 145.123 53.724 145.123 -2.716 145.123 C-4.043 142.469 -3.841 140.472 -3.843 137.498 C-3.845 136.302 -3.848 135.106 -3.851 133.874 C-3.849 132.555 -3.847 131.236 -3.845 129.877 C-3.846 128.479 -3.848 127.081 -3.85 125.684 C-3.855 121.882 -3.853 118.081 -3.85 114.279 C-3.847 110.308 -3.85 106.337 -3.851 102.365 C-3.853 95.696 -3.851 89.027 -3.846 82.358 C-3.84 74.637 -3.842 66.917 -3.848 59.196 C-3.852 52.577 -3.853 45.958 -3.85 39.338 C-3.849 35.381 -3.849 31.423 -3.852 27.465 C-3.855 23.746 -3.853 20.028 -3.847 16.309 C-3.846 14.94 -3.846 13.571 -3.848 12.203 C-3.851 10.342 -3.847 8.481 -3.843 6.621 C-3.842 5.577 -3.842 4.533 -3.841 3.458 C-3.659 0.082 -3.41 0.155 0 0 Z " fill="#E2231A" transform="translate(211.71553134918213,943.8769521713257)"/>
<path d="M0 0 C0.42 -0.003 0.42 -0.003 2.545 -0.017 C3.457 -0.018 4.37 -0.02 5.311 -0.021 C6.279 -0.026 7.247 -0.031 8.244 -0.036 C11.445 -0.05 14.645 -0.057 17.846 -0.063 C20.07 -0.068 22.295 -0.074 24.519 -0.08 C29.182 -0.09 33.845 -0.096 38.508 -0.1 C44.485 -0.105 50.461 -0.129 56.438 -0.158 C61.032 -0.176 65.625 -0.182 70.219 -0.183 C72.423 -0.186 74.627 -0.194 76.83 -0.207 C79.911 -0.224 82.991 -0.222 86.072 -0.216 C86.528 -0.221 86.528 -0.221 88.832 -0.244 C93.685 -0.212 96.767 0.083 100.756 3.14 C101.168 3.389 101.168 3.389 103.252 4.647 C111.588 10.102 120.015 16.71 122.384 26.82 C123.501 34.239 123.562 41.653 123.444 49.14 C123.433 50.23 123.421 51.32 123.41 52.443 C123.353 55.597 123.235 58.74 123.08 61.89 C123.063 62.369 123.063 62.369 122.972 64.792 C122.493 71.231 122.493 71.231 120.402 73.812 C118.795 75.152 118.795 75.152 115.756 77.14 C114.532 78.441 113.339 79.771 112.194 81.14 C109.501 84.287 106.765 87.286 103.756 90.14 C103.035 90.999 102.313 91.857 101.57 92.741 C96.339 97.031 88.714 95.867 82.295 95.847 C80.779 95.861 79.263 95.876 77.747 95.893 C73.772 95.933 69.797 95.943 65.822 95.947 C61.76 95.957 57.697 95.994 53.635 96.029 C45.676 96.094 37.716 96.127 29.756 96.14 C29.744 96.592 29.744 96.592 29.68 98.878 C29.585 102.22 29.486 105.562 29.384 108.903 C29.341 110.351 29.299 111.799 29.259 113.248 C29.201 115.325 29.138 117.403 29.073 119.48 C29.036 120.732 28.999 121.983 28.962 123.273 C28.756 126.14 28.756 126.14 27.756 127.14 C25.09 127.229 22.45 127.256 19.784 127.238 C18.986 127.237 18.188 127.235 17.366 127.234 C14.809 127.228 12.251 127.216 9.694 127.203 C7.964 127.198 6.234 127.193 4.504 127.189 C0.255 127.178 -3.994 127.161 -8.244 127.14 C-9.242 124.144 -9.355 122.235 -9.326 119.11 C-9.319 118.071 -9.312 117.032 -9.305 115.961 C-9.292 114.822 -9.279 113.683 -9.265 112.509 C-9.256 111.309 -9.246 110.109 -9.236 108.872 C-9.209 105.581 -9.177 102.29 -9.143 98.999 C-9.109 95.56 -9.08 92.12 -9.051 88.681 C-8.995 82.168 -8.934 75.655 -8.87 69.142 C-8.799 61.728 -8.733 54.313 -8.667 46.898 C-8.533 31.646 -8.391 16.393 -8.244 1.14 C-5.429 0.343 -2.922 0.012 0 0 Z " fill="#FFFFFF" transform="translate(555.2437591552734,719.8595581054688)"/>
<path d="M0 0 C5.109 -0.025 10.217 -0.043 15.326 -0.055 C17.065 -0.06 18.804 -0.067 20.544 -0.075 C23.038 -0.088 25.533 -0.093 28.027 -0.098 C28.81 -0.103 29.592 -0.108 30.398 -0.113 C32.266 -0.113 34.133 -0.062 36 0 C38.029 2.029 37.185 6.221 37.205 9.008 C37.215 9.847 37.225 10.686 37.235 11.55 C37.267 14.337 37.292 17.124 37.316 19.91 C37.337 21.837 37.358 23.764 37.379 25.69 C37.435 30.772 37.484 35.853 37.532 40.935 C37.582 46.116 37.638 51.297 37.693 56.479 C37.801 66.652 37.902 76.826 38 87 C38.619 87.289 39.237 87.577 39.875 87.875 C42 89 42 89 44 91 C46.943 91.237 49.788 91.352 52.734 91.371 C53.17 91.376 53.17 91.376 55.373 91.398 C57.219 91.413 59.065 91.422 60.911 91.426 C63.726 91.437 66.538 91.487 69.352 91.537 C71.146 91.547 72.94 91.554 74.734 91.559 C75.153 91.568 75.153 91.568 77.273 91.618 C81.448 91.586 84.183 91.294 87.517 88.653 C91.478 84.422 91.164 80.54 91.205 75.04 C91.215 74.23 91.225 73.42 91.235 72.586 C91.267 69.907 91.292 67.229 91.316 64.551 C91.337 62.694 91.358 60.838 91.379 58.981 C91.435 54.093 91.484 49.206 91.532 44.318 C91.591 38.455 91.658 32.591 91.723 26.727 C91.821 17.818 91.909 8.909 92 0 C104.21 0 116.42 0 129 0 C129.113 13.213 129.205 26.425 129.259 39.638 C129.285 45.774 129.321 51.909 129.377 58.044 C129.431 63.964 129.461 69.883 129.474 75.803 C129.484 78.063 129.502 80.322 129.529 82.581 C129.565 85.744 129.57 88.906 129.568 92.069 C129.577 92.537 129.577 92.537 129.622 94.905 C129.587 99.35 129.569 101.309 126.665 104.834 C125.786 105.549 124.906 106.264 124 107 C122.9 108.509 121.828 110.038 120.786 111.587 C114.738 119.602 108.621 125.883 98.467 127.408 C88.036 128.514 77.537 128.113 67.077 127.713 C63.373 127.595 59.671 127.576 55.965 127.559 C52.374 127.538 48.784 127.478 45.194 127.404 C43.49 127.369 41.785 127.342 40.081 127.321 C25.278 127.078 25.278 127.078 20.085 122.577 C19.029 121.409 17.997 120.218 17 119 C16.02 118.148 15.041 117.296 14.031 116.418 C13.614 116.05 13.614 116.05 11.5 114.188 C10.644 113.439 9.788 112.69 8.906 111.918 C7 110 7 110 7 108 C6.402 107.732 5.804 107.464 5.188 107.188 C2.938 105.966 1.616 104.974 0 103 C-0.369 101.022 -0.369 101.022 -0.361 98.729 C-0.365 97.858 -0.369 96.987 -0.373 96.09 C-0.362 95.138 -0.352 94.186 -0.341 93.204 C-0.341 92.199 -0.341 91.194 -0.342 90.159 C-0.34 86.831 -0.316 83.504 -0.293 80.176 C-0.287 77.871 -0.283 75.566 -0.28 73.261 C-0.269 67.189 -0.239 61.118 -0.206 55.047 C-0.175 48.854 -0.162 42.66 -0.146 36.467 C-0.114 24.311 -0.063 12.156 0 0 Z " fill="#FFFFFF" transform="translate(62,721)"/>
<path d="M0 0 C0 0.66 0 1.32 0 2 C-2.163 3.446 -4.331 4.794 -6.562 6.125 C-12.443 9.791 -16.895 13.348 -21 19 C-21.82 20.087 -22.641 21.175 -23.461 22.262 C-35.239 38.096 -35.239 38.096 -36.562 46.625 C-35.631 52.216 -33.633 56.409 -29.562 60.375 C-23.223 64.395 -17.371 64.867 -10 64 C-2.746 61.799 2.472 57.145 7.871 51.988 C12.5 47.665 16.055 47.415 22.237 47.355 C26.809 47.514 29.263 48.28 32.438 51.562 C32.952 52.224 33.466 52.885 33.996 53.566 C36.363 56.441 39.023 58.708 41.844 61.128 C45.347 64.169 48.697 67.371 52.062 70.562 C53.557 71.974 55.052 73.386 56.547 74.797 C57.291 75.5 58.036 76.203 58.803 76.928 C62.13 80.066 65.469 83.191 68.812 86.312 C69.12 86.6 69.12 86.6 70.675 88.052 C74.032 91.182 77.407 94.29 80.804 97.377 C83.215 99.572 85.607 101.787 88 104 C88.967 104.877 89.934 105.753 90.93 106.656 C91.84 107.512 92.75 108.368 93.688 109.25 C94.496 109.998 95.304 110.745 96.137 111.516 C98.548 114.73 98.914 117.01 99 121 C97.663 124.056 95.658 126.012 93 128 C89.75 128.938 89.75 128.938 86 128 C78.004 123.082 71.3 115.701 64.492 109.277 C61.293 106.263 58.045 103.32 54.703 100.465 C53.485 99.417 52.289 98.344 51.109 97.254 C50.496 96.696 49.882 96.138 49.25 95.562 C48.984 95.316 48.984 95.316 47.641 94.066 C46 93 46 93 42 93 C41.594 95.102 41.594 95.102 42 98 C43.892 100.427 46.179 102.366 48.5 104.375 C49.147 104.954 49.794 105.534 50.461 106.131 C52.295 107.768 54.144 109.387 56 111 C56.732 111.642 57.464 112.284 58.219 112.945 C59.407 113.982 60.596 115.019 61.785 116.055 C62.516 116.697 63.247 117.339 64 118 C64.553 118.485 65.106 118.97 65.675 119.47 C67.607 121.176 69.523 122.899 71.438 124.625 C71.752 124.901 71.752 124.901 73.342 126.295 C77.761 130.316 77.761 130.316 78.957 133.734 C79.026 137.358 77.829 139.839 75.75 142.75 C73.163 144.598 71.159 144.874 68 145 C64.291 143.094 61.367 140.692 58.312 137.875 C57.44 137.076 56.567 136.277 55.668 135.453 C54.788 134.644 53.907 133.834 53 133 C50.555 130.8 48.104 128.606 45.652 126.414 C43.702 124.639 41.783 122.847 39.879 121.023 C39.348 120.521 38.818 120.019 38.271 119.501 C37.239 118.523 36.214 117.536 35.198 116.542 C32.237 113.75 30.087 112.357 26 112 C25.719 114.195 25.719 114.195 26 117 C27.906 119.43 27.906 119.43 30.5 121.875 C31.42 122.75 32.341 123.626 33.289 124.527 C36.088 127.08 38.903 129.603 41.777 132.07 C44.702 134.61 47.573 137.205 50.438 139.812 C50.97 140.293 51.503 140.774 52.052 141.269 C56.816 145.618 56.816 145.618 57.375 149.812 C57 153 57 153 54.938 155.875 C51.206 158.574 49.537 158.54 45 158 C42.594 156.417 40.755 155 38.688 153.062 C38.129 152.565 37.571 152.067 36.996 151.554 C35.316 150.051 33.658 148.527 32 147 C30.209 145.395 28.417 143.791 26.625 142.188 C24.394 140.174 22.169 138.157 19.969 136.109 C15.437 132 15.437 132 11 132 C11 133.65 11 135.3 11 137 C9.52 136.524 8.041 136.044 6.562 135.562 C5.739 135.296 4.915 135.029 4.066 134.754 C2 134 2 134 1 133 C0.868 131.607 0.769 130.21 0.688 128.812 C0.201 124.24 -0.892 121.517 -4 118 C-7.998 114.972 -12.001 113.488 -17 113 C-17.159 112.408 -17.317 111.817 -17.48 111.207 C-19.465 104.484 -22.083 100.945 -28 97 C-30.107 97.087 -32.212 97.241 -34.312 97.438 C-40.401 97.573 -40.401 97.573 -42.977 95.109 C-43.948 93.499 -44.879 91.862 -45.766 90.203 C-47.632 86.873 -49.36 86.03 -53 85 C-60.179 84.152 -65.186 84.61 -71 89 C-73.438 91.75 -73.438 91.75 -75 94 C-78.937 92.688 -81.227 91.081 -84 88 C-81.497 78.912 -78.177 70.131 -74.875 61.312 C-74.295 59.757 -73.716 58.202 -73.136 56.647 C-68.555 44.38 -63.847 32.165 -59 20 C-57.928 20.082 -56.855 20.165 -55.75 20.25 C-44.006 20.174 -32.439 13.176 -22 8.312 C-19.769 7.277 -17.537 6.244 -15.304 5.214 C-13.926 4.579 -12.551 3.94 -11.177 3.298 C-4.042 0 -4.042 0 0 0 Z " fill="#E2231A" transform="translate(429,394)"/>
<path d="M0 0 C14.073 -0.673 26.639 4.522 37.125 13.586 C47.291 23.302 53.825 34.86 54.426 49.149 C54.501 64.077 49.168 77.362 38.812 88.211 C27.97 97.689 14.259 103.029 -0.234 102.562 C-15.869 100.701 -29.011 94.366 -39.012 81.945 C-40.533 79.753 -41.891 77.543 -43.188 75.211 C-43.382 74.863 -43.382 74.863 -44.367 73.102 C-50.255 61.326 -50.649 46.986 -46.562 34.586 C-40.581 19.888 -30.918 10.272 -16.648 3.586 C-11.104 1.383 -5.891 0.568 0 0 Z " fill="#1C1C1D" transform="translate(554.1875,149.7890625)"/>
<path d="M0 0 C9.842 9.551 15.561 21.135 15.982 34.859 C16.085 49.426 12.286 62.229 2.18 73.199 C-7.852 82.819 -20.758 88.561 -34.688 89.188 C-46.134 88.806 -57.208 85.552 -66.438 78.75 C-67.046 78.334 -67.654 77.917 -68.281 77.488 C-77.834 70.259 -84.481 58.411 -86.438 46.75 C-87.975 32.283 -85.375 18.553 -76.438 6.75 C-56.272 -16.326 -23.981 -20.269 0 0 Z " fill="#E2231A" transform="translate(376.4375,163.25)"/>
<path d="M0 0 C42.24 0 84.48 0 128 0 C128 11.22 128 22.44 128 34 C113.15 34.33 98.3 34.66 83 35 C82.67 65.03 82.34 95.06 82 126 C70.12 126 58.24 126 46 126 C44.155 124.155 44.88 121.555 44.876 119.101 C44.877 118.677 44.877 118.677 44.886 116.533 C44.886 115.645 44.886 114.758 44.886 113.843 C44.887 110.894 44.895 107.945 44.902 104.996 C44.904 102.957 44.906 100.918 44.907 98.88 C44.91 93.502 44.92 88.125 44.931 82.747 C44.943 76.301 44.948 69.855 44.954 63.409 C44.964 53.606 44.983 43.803 45 34 C30.15 34 15.3 34 0 34 C0 22.78 0 11.56 0 0 Z " fill="#FFFFFF" transform="translate(306,721)"/>
<path d="M0 0 C0.626 0.288 1.252 0.576 1.896 0.873 C3.225 1.485 4.55 2.102 5.874 2.724 C8.636 4.021 11.409 5.293 14.181 6.566 C15.561 7.2 16.94 7.834 18.319 8.47 C23.834 11.011 29.383 13.456 34.98 15.809 C35.691 16.11 36.401 16.412 37.132 16.723 C44.868 19.955 51.629 22.583 60.105 22.121 C65.064 32.931 69.166 44.074 73.373 55.192 C74.131 57.188 74.894 59.183 75.657 61.177 C76.964 64.592 78.257 68.013 79.541 71.437 C80.04 72.762 80.543 74.085 81.051 75.406 C81.762 77.261 82.455 79.123 83.148 80.984 C83.35 81.517 83.35 81.517 84.368 84.212 C85.163 87.348 85.066 89.062 84.105 92.121 C79.675 99.39 73.893 102.601 66.059 105.441 C63.118 106.118 61.838 106.281 59.105 105.121 C56.854 103.639 55.095 101.975 53.105 100.121 C53.105 99.461 53.105 98.801 53.105 98.121 C52.533 97.877 51.961 97.634 51.371 97.383 C48.701 95.896 46.967 94.14 44.855 91.934 C42.14 89.157 39.431 86.459 36.48 83.934 C32.504 80.519 28.679 76.955 24.855 73.371 C13.73 62.946 13.73 62.946 8.227 58.086 C5.799 55.876 3.696 53.507 1.578 51 C-7.408 40.803 -7.408 40.803 -13.598 39.592 C-21.297 39.302 -30.024 40.489 -36.203 45.43 C-38.707 47.996 -38.707 47.996 -40.887 50.668 C-44.609 55.216 -48.93 57.667 -54.727 58.555 C-59.285 58.756 -62.058 58.623 -66.02 56.246 C-68.855 53.032 -68.855 53.032 -68.976 50.24 C-68.511 43.696 -66.277 40.033 -62.145 35.059 C-61.084 33.737 -60.027 32.413 -58.973 31.086 C-58.45 30.437 -57.927 29.788 -57.389 29.119 C-55.891 27.117 -54.676 25.07 -53.441 22.898 C-50.938 18.789 -48.101 16.93 -43.895 14.746 C-36.297 10.512 -29.683 5.548 -22.895 0.121 C-15.377 -5.69 -8.261 -3.857 0 0 Z " fill="#1D1C1D" transform="translate(469.89453125,391.87890625)"/>
<path d="M0 0 C3.81 0.132 7.601 0.123 11.413 0.096 C31.5 0.25 31.5 0.25 37.706 6.483 C38.948 8.237 40.185 9.995 41.417 11.756 C41.996 12.122 42.576 12.488 43.173 12.865 C45.476 14.327 46.855 15.5 48.417 17.756 C49.417 23.05 49.232 28.296 49.1 33.655 C49.087 35.216 49.077 36.776 49.07 38.337 C49.043 42.432 48.975 46.524 48.897 50.618 C48.825 54.8 48.794 58.983 48.758 63.167 C48.683 71.364 48.564 79.56 48.417 87.756 C44.271 87.785 40.125 87.803 35.979 87.819 C34.795 87.827 33.611 87.836 32.391 87.844 C31.266 87.847 30.142 87.851 28.983 87.854 C28.462 87.857 28.462 87.857 25.825 87.87 C23.417 87.756 23.417 87.756 22.417 86.756 C22.33 85.268 22.309 83.775 22.319 82.284 C22.321 81.474 22.324 80.664 22.326 79.83 C22.336 78.795 22.345 77.76 22.354 76.694 C22.375 73.414 22.395 70.135 22.417 66.756 C10.207 66.756 -2.003 66.756 -14.583 66.756 C-14.521 76.694 -14.521 76.694 -14.493 79.83 C-14.491 80.64 -14.488 81.45 -14.486 82.284 C-14.483 82.7 -14.483 82.7 -14.47 84.807 C-14.583 86.756 -14.583 86.756 -15.583 87.756 C-17.437 87.844 -19.294 87.863 -21.15 87.854 C-22.275 87.851 -23.399 87.848 -24.558 87.844 C-25.742 87.836 -26.926 87.827 -28.146 87.819 C-29.334 87.814 -30.522 87.81 -31.746 87.805 C-34.692 87.793 -37.638 87.777 -40.583 87.756 C-40.957 78.907 -41.24 70.06 -41.412 61.205 C-41.495 57.09 -41.607 52.982 -41.791 48.871 C-43.083 18.988 -43.083 18.988 -36.232 9.655 C-26.468 -0.662 -13.358 -0.491 0 0 Z " fill="#FFFFFF" transform="translate(287.58349609375,972.24365234375)"/>
<path d="M0 0 C0.578 0.002 0.578 0.002 3.504 0.012 C4.756 0.014 6.008 0.016 7.299 0.018 C7.956 0.024 7.956 0.024 11.281 0.055 C12.599 0.056 13.917 0.057 15.275 0.057 C25.078 0.103 25.078 0.103 26.219 1.243 C26.311 2.594 26.336 3.95 26.332 5.304 C26.332 5.734 26.332 5.734 26.332 7.912 C26.327 8.848 26.321 9.783 26.316 10.747 C26.315 11.7 26.313 12.653 26.312 13.635 C26.306 16.692 26.294 19.749 26.281 22.805 C26.276 24.872 26.271 26.94 26.267 29.007 C26.256 34.085 26.239 39.164 26.219 44.243 C26.78 44.241 27.342 44.238 27.92 44.236 C33.743 44.214 39.566 44.199 45.39 44.188 C47.565 44.183 49.741 44.176 51.917 44.167 C55.037 44.155 58.157 44.15 61.277 44.145 C62.256 44.14 63.235 44.135 64.244 44.13 C65.145 44.13 66.046 44.129 66.974 44.129 C67.771 44.127 68.569 44.125 69.39 44.123 C71.219 44.243 71.219 44.243 72.219 45.243 C72.318 47.292 72.349 49.344 72.351 51.395 C72.353 52.646 72.354 53.897 72.355 55.186 C72.351 56.504 72.347 57.822 72.344 59.18 C72.347 60.495 72.351 61.809 72.355 63.163 C72.354 64.415 72.353 65.667 72.351 66.958 C72.35 68.114 72.349 69.27 72.348 70.461 C72.219 73.243 72.219 73.243 71.219 75.243 C56.369 75.243 41.519 75.243 26.219 75.243 C26.281 96.18 26.281 96.18 26.309 102.797 C26.312 104.517 26.314 106.238 26.316 107.958 C26.321 108.86 26.326 109.761 26.332 110.69 C26.332 112.875 26.281 115.059 26.219 117.243 C25.219 118.243 25.219 118.243 22.443 118.356 C21.233 118.351 20.023 118.346 18.777 118.341 C17.472 118.337 16.167 118.334 14.822 118.331 C13.433 118.322 12.045 118.314 10.656 118.305 C9.263 118.3 7.871 118.296 6.478 118.292 C3.058 118.28 -0.362 118.263 -3.781 118.243 C-5.498 114.809 -5.027 110.862 -5.098 107.079 C-5.119 106.172 -5.139 105.264 -5.161 104.33 C-5.226 101.426 -5.285 98.522 -5.344 95.618 C-5.387 93.652 -5.431 91.686 -5.475 89.719 C-5.582 84.894 -5.683 80.069 -5.781 75.243 C-6.412 75.251 -6.412 75.251 -9.605 75.291 C-14.275 75.345 -18.946 75.379 -23.616 75.408 C-25.639 75.423 -27.663 75.443 -29.686 75.469 C-32.59 75.506 -35.494 75.523 -38.399 75.536 C-39.307 75.551 -40.215 75.567 -41.151 75.583 C-41.572 75.583 -41.572 75.583 -43.699 75.583 C-44.07 75.587 -44.07 75.587 -45.947 75.604 C-46.552 75.485 -47.158 75.366 -47.781 75.243 C-50.11 71.75 -50.017 70.383 -49.977 66.262 C-49.97 65.099 -49.964 63.936 -49.957 62.737 C-49.941 61.522 -49.924 60.307 -49.906 59.055 C-49.897 57.829 -49.888 56.602 -49.879 55.339 C-49.856 52.307 -49.823 49.275 -49.781 46.243 C-46.906 44.61 -44.863 43.996 -41.564 44.016 C-41.153 44.016 -41.153 44.016 -39.077 44.016 C-38.639 44.021 -38.639 44.021 -36.422 44.048 C-35.518 44.05 -34.613 44.053 -33.682 44.056 C-30.798 44.067 -27.915 44.092 -25.031 44.118 C-23.074 44.128 -21.117 44.137 -19.16 44.145 C-14.367 44.167 -9.574 44.202 -4.781 44.243 C-4.787 43.612 -4.787 43.612 -4.813 40.419 C-4.849 35.749 -4.872 31.079 -4.891 26.408 C-4.901 24.385 -4.915 22.362 -4.932 20.338 C-4.957 17.434 -4.968 14.53 -4.977 11.626 C-4.987 10.717 -4.997 9.809 -5.008 8.873 C-5.008 8.453 -5.008 8.453 -5.009 6.325 C-5.013 5.584 -5.017 4.842 -5.022 4.078 C-4.587 0.759 -3.144 0.275 0 0 Z " fill="#E2231A" transform="translate(817.781494140625,724.757080078125)"/>
<path d="M0 0 C4.362 -0.155 8.722 -0.249 13.086 -0.332 C14.318 -0.377 15.55 -0.421 16.82 -0.467 C27.081 -0.614 27.081 -0.614 31.039 2.471 C33.827 5.535 35.825 8.476 38 12 C39.628 14.056 41.346 16.015 43.062 18 C45.447 20.898 47.466 23.567 49 27 C52.559 25.814 53.204 24.757 55.438 21.812 C58.969 17.268 62.624 12.862 66.375 8.5 C66.899 7.889 67.423 7.277 67.963 6.648 C69.922 4.37 71.875 2.125 74 0 C82.58 0 91.16 0 100 0 C100 28.38 100 56.76 100 86 C91.75 86 83.5 86 75 86 C74 85 74 85 73.88 83.171 C73.882 82.374 73.884 81.577 73.886 80.756 C73.887 80.305 73.887 80.305 73.887 78.026 C73.892 77.047 73.897 76.067 73.902 75.059 C73.904 74.061 73.905 73.064 73.907 72.036 C73.912 68.837 73.925 65.637 73.938 62.438 C73.943 60.274 73.947 58.111 73.951 55.947 C73.962 50.631 73.979 45.316 74 40 C73.34 40 72.68 40 72 40 C71.864 40.297 71.864 40.297 71.177 41.8 C70.023 43.957 68.851 45.443 67.172 47.207 C66.619 47.794 66.066 48.381 65.496 48.986 C64.92 49.589 64.344 50.192 63.75 50.812 C59.362 55.437 55.116 60.13 51 65 C42.084 57.722 35.227 48.915 28 40 C27.08 42.761 26.892 44.281 26.938 47.113 C26.946 47.939 26.954 48.765 26.963 49.616 C26.975 50.506 26.987 51.396 27 52.312 C27.087 63.566 26.612 74.766 26 86 C21.854 86.029 17.708 86.047 13.562 86.062 C12.97 86.067 12.97 86.067 9.975 86.088 C8.85 86.091 7.725 86.094 6.566 86.098 C6.045 86.1 6.045 86.1 3.408 86.114 C1 86 1 86 0 85 C-0.095 82.353 -0.126 79.731 -0.114 77.084 C-0.114 76.255 -0.114 75.425 -0.114 74.571 C-0.113 71.817 -0.105 69.063 -0.098 66.309 C-0.096 64.404 -0.094 62.5 -0.093 60.596 C-0.09 55.573 -0.08 50.551 -0.069 45.529 C-0.058 40.408 -0.054 35.287 -0.049 30.166 C-0.038 20.111 -0.021 10.055 0 0 Z " fill="#FFFFFF" transform="translate(52,974)"/>
<path d="M0 0 C8.58 0 17.16 0 26 0 C27 1 27 1 27.114 3.867 C27.108 5.119 27.103 6.371 27.098 7.66 C27.095 8.876 27.093 10.091 27.09 11.344 C27.081 12.901 27.072 14.458 27.062 16.062 C27.042 20.992 27.021 25.921 27 31 C38.55 30.67 50.1 30.34 62 30 C62.33 20.1 62.66 10.2 63 0 C71.58 0 80.16 0 89 0 C89 28.38 89 56.76 89 86 C80.42 86 71.84 86 63 86 C63 75.77 63 65.54 63 55 C51.12 55 39.24 55 27 55 C27.062 69.937 27.062 69.937 27.09 74.656 C27.093 75.872 27.095 77.087 27.098 78.34 C27.1 78.966 27.1 78.966 27.114 82.133 C27 85 27 85 26 86 C17.42 86 8.84 86 0 86 C0 57.62 0 29.24 0 0 Z " fill="#FFFFFF" transform="translate(808,974)"/>
<path d="M0 0 C3.966 0.168 7.917 0.205 11.886 0.222 C14.426 0.269 16.966 0.323 19.506 0.386 C20.093 0.394 20.093 0.394 23.063 0.438 C31.097 0.833 34.958 2.818 40.377 8.667 C40.83 9.012 40.83 9.012 43.127 10.757 C48.954 15.542 48.954 15.542 49.768 19.633 C50.149 24.344 49.843 28.972 49.377 33.667 C45.273 33.812 41.17 33.901 37.064 33.979 C35.897 34.021 34.73 34.063 33.527 34.106 C32.409 34.123 31.291 34.139 30.138 34.155 C29.623 34.168 29.623 34.168 27.012 34.235 C24.377 33.667 24.377 33.667 22.642 31.261 C22.224 30.405 21.807 29.549 21.377 28.667 C17.936 25.226 12.976 26.363 8.328 26.345 C7.968 26.346 7.968 26.346 6.146 26.351 C3.951 26.354 1.757 26.331 -0.438 26.306 C-1.832 26.303 -3.226 26.303 -4.619 26.304 C-5.255 26.302 -5.255 26.302 -8.469 26.295 C-11.623 26.667 -11.623 26.667 -13.534 27.784 C-15.952 31.963 -15.099 37.368 -15.069 42.064 C-15.061 44.095 -15.09 46.123 -15.121 48.153 C-15.121 49.435 -15.12 50.717 -15.119 52.038 C-15.121 53.213 -15.123 54.388 -15.125 55.598 C-14.623 58.667 -14.623 58.667 -13.007 61.05 C-9.853 63.189 -7.789 63.169 -3.994 63.163 C-2.712 63.164 -1.43 63.164 -0.11 63.165 C0.555 63.155 1.219 63.144 1.904 63.134 C3.937 63.105 5.967 63.113 8 63.126 C17.917 63.061 17.917 63.061 20.158 61.14 C20.56 60.654 20.962 60.168 21.377 59.667 C22.037 59.667 22.697 59.667 23.377 59.667 C23.707 58.347 24.037 57.027 24.377 55.667 C32.627 55.667 40.877 55.667 49.377 55.667 C51.258 67.897 51.258 67.897 47.839 72.932 C35.386 87.326 35.386 87.326 29.091 87.861 C28.614 87.877 28.614 87.877 26.199 87.955 C25.117 87.991 24.035 88.026 22.92 88.062 C17.933 88.187 12.947 88.277 7.959 88.347 C5.338 88.393 2.718 88.461 0.098 88.552 C-24.049 89.371 -24.049 89.371 -30.575 84.02 C-32.857 81.738 -34.74 79.284 -36.623 76.667 C-37.141 76.161 -37.659 75.654 -38.193 75.132 C-43.303 70.059 -43.654 65.437 -43.807 58.425 C-43.823 57.884 -43.823 57.884 -43.903 55.147 C-43.955 52.859 -43.991 50.571 -44.01 48.283 C-44.06 44.83 -44.233 41.397 -44.41 37.948 C-44.727 26.594 -43.814 17.279 -35.881 8.628 C-25.669 -0.991 -13.298 -0.576 0 0 Z " fill="#FFFFFF" transform="translate(661.623291015625,972.3330078125)"/>
<path d="M0 0 C1.155 0 2.311 0 3.501 0 C4.145 -0.001 4.79 -0.002 5.454 -0.003 C7.644 -0.006 9.834 -0.002 12.024 0.002 C13.604 0.001 15.185 -0 16.765 -0.002 C21.149 -0.005 25.532 -0.002 29.915 0.002 C34.669 0.006 39.422 0.003 44.175 0.002 C52.52 -0 60.864 0.001 69.208 0.005 C81.616 0.011 94.024 0.012 106.431 0.011 C127.3 0.01 148.168 0.013 169.036 0.019 C189.709 0.025 210.382 0.029 231.055 0.03 C231.697 0.03 231.697 0.03 234.945 0.03 C241.463 0.03 247.982 0.031 254.501 0.031 C267.759 0.032 281.016 0.032 294.274 0.034 C294.606 0.034 294.606 0.034 296.284 0.034 C328.571 0.036 360.858 0.043 393.145 0.049 C404.352 0.052 415.559 0.054 426.766 0.056 C427.461 0.056 428.157 0.056 428.873 0.056 C461.171 0.063 493.469 0.066 525.768 0.07 C527.864 0.07 529.96 0.07 532.056 0.07 C545.948 0.071 559.84 0.073 573.732 0.074 C602.033 0.077 630.334 0.079 658.636 0.082 C659.937 0.082 661.238 0.083 662.579 0.083 C749.533 0.092 836.486 0.108 923.439 0.125 C924.002 2.062 924.002 2.062 924.439 4.125 C923.439 5.125 923.439 5.125 920.879 5.249 C919.723 5.249 918.568 5.249 917.378 5.249 C916.733 5.25 916.089 5.251 915.425 5.253 C913.235 5.256 911.045 5.252 908.855 5.248 C907.274 5.248 905.694 5.25 904.113 5.251 C899.73 5.254 895.347 5.251 890.963 5.247 C886.21 5.244 881.457 5.246 876.703 5.248 C868.359 5.25 860.015 5.248 851.67 5.244 C839.263 5.238 826.855 5.238 814.447 5.238 C793.579 5.24 772.711 5.236 751.842 5.23 C731.169 5.224 710.497 5.221 689.824 5.22 C688.54 5.219 687.257 5.219 685.934 5.219 C679.415 5.219 672.896 5.219 666.378 5.218 C653.12 5.218 639.862 5.217 626.605 5.216 C626.273 5.216 626.273 5.216 624.594 5.216 C592.308 5.213 560.021 5.207 527.734 5.2 C516.527 5.198 505.319 5.196 494.112 5.193 C493.417 5.193 492.722 5.193 492.006 5.193 C459.708 5.187 427.409 5.183 395.111 5.18 C393.015 5.18 390.919 5.179 388.822 5.179 C374.93 5.178 361.039 5.177 347.147 5.175 C318.845 5.173 290.544 5.17 262.243 5.167 C260.942 5.167 259.64 5.167 258.299 5.167 C171.346 5.157 84.393 5.142 -2.561 5.125 C-3.123 3.187 -3.123 3.187 -3.561 1.125 C-2.561 0.125 -2.561 0.125 0 0 Z " fill="#E2231A" transform="translate(15.560681585222483,912.8753288350999)"/>
<path d="M0 0 C29.7 0 59.4 0 90 0 C90 7.59 90 15.18 90 23 C79.372 23.966 68.672 24 58 24 C58 44.46 58 64.92 58 86 C49.42 86 40.84 86 32 86 C32 65.54 32 45.08 32 24 C16.063 24.062 16.063 24.062 11.028 24.09 C9.731 24.093 8.434 24.095 7.098 24.098 C6.412 24.103 5.726 24.108 5.019 24.113 C3.346 24.113 1.672 24.062 0 24 C-1 23 -1 23 -1.133 20.664 C-1.13 19.661 -1.128 18.658 -1.125 17.625 C-1.128 16.648 -1.13 15.671 -1.133 14.664 C-0.955 9.765 -0.444 4.882 0 0 Z " fill="#FFFFFF" transform="translate(433,974)"/>
<path d="M0 0 C2.329 1.63 4.255 3.152 6.312 5.062 C7.453 6.075 8.595 7.087 9.738 8.098 C10.016 8.347 10.016 8.347 11.42 9.606 C13.551 11.486 15.765 13.246 18 15 C22.453 18.529 26.787 22.182 31.113 25.863 C34.546 28.78 38.006 31.657 41.5 34.5 C47.169 39.117 52.745 43.837 58.316 48.571 C60.603 50.512 62.894 52.449 65.187 54.384 C66.301 55.326 67.412 56.272 68.52 57.222 C70.746 59.125 72.971 60.979 75.336 62.707 C78.847 65.308 80.455 67.314 81.188 71.562 C81.278 74.708 80.972 76.06 79.625 79 C76.548 81.345 74.537 82.356 70.672 82.57 C64.473 81.247 59.656 76.068 55 72 C53.839 71.014 52.676 70.029 51.512 69.047 C48.567 66.551 45.647 64.028 42.732 61.498 C39.941 59.084 37.129 56.696 34.312 54.312 C33.775 53.858 33.237 53.403 32.684 52.934 C28.433 49.346 24.13 45.827 19.816 42.316 C16.662 39.722 13.548 37.084 10.438 34.438 C5.768 30.466 1.03 26.598 -3.77 22.785 C-12.669 15.663 -12.669 15.663 -14 13 C-14.702 5.868 -14.702 5.868 -11.625 2.062 C-7.305 -1.332 -5.401 -1.259 0 0 Z " fill="#FFFFFF" transform="translate(788,541)"/>
<path d="M0 0 C0.938 -0.023 1.877 -0.045 2.843 -0.068 C7.159 -0.139 11.474 -0.197 15.79 -0.235 C18.064 -0.262 20.337 -0.303 22.61 -0.358 C25.888 -0.438 29.164 -0.471 32.443 -0.494 C33.454 -0.527 34.464 -0.56 35.506 -0.594 C40.787 -0.579 43.843 -0.168 47.732 3.576 C50.522 6.72 51.523 8.988 51.404 13.287 C51.407 13.778 51.407 13.778 51.423 16.26 C50.269 20.373 48.095 22.9 44.591 25.225 C41.17 26.094 37.854 26.087 34.337 26.064 C33.848 26.072 33.848 26.072 31.372 26.113 C28.257 26.157 25.144 26.159 22.029 26.162 C19.93 26.189 17.832 26.218 15.734 26.25 C-0.8 26.445 -0.8 26.445 -5.409 25.225 C-5.438 21.245 -5.455 17.266 -5.471 13.287 C-5.48 12.151 -5.488 11.014 -5.497 9.844 C-5.5 8.764 -5.503 7.685 -5.506 6.572 C-5.512 5.572 -5.517 4.572 -5.522 3.541 C-5.325 -0.49 -3.592 0.082 0 0 Z " fill="#E2231A" transform="translate(589.40869140625,754.775390625)"/>
<path d="M0 0 C0.639 -0.003 0.639 -0.003 3.871 -0.016 C4.534 -0.007 5.196 0.001 5.878 0.01 C7.901 0.031 9.919 0.01 11.941 -0.016 C13.219 -0.01 14.496 -0.005 15.812 0 C16.981 0.005 18.15 0.009 19.354 0.014 C22.406 0.531 22.406 0.531 26.406 4.531 C26.406 9.151 26.406 13.771 26.406 18.531 C14.196 18.531 1.986 18.531 -10.594 18.531 C-10.594 0.041 -10.594 0.041 0 0 Z " fill="#E2231A" transform="translate(283.59375,997.46875)"/>
<path d="M0 0 C3.062 2.562 3.062 2.562 5 6 C5.354 10.779 3.997 13.346 1 16.875 C-0.319 18.264 -1.653 19.638 -3 21 C-3.744 21.793 -4.488 22.586 -5.254 23.402 C-12.89 31.374 -12.89 31.374 -18 33 C-21.641 33 -22.914 32.067 -25.812 29.812 C-28.448 26.424 -28.467 25.192 -28 21 C-22.663 11.758 -11.768 -2.336 0 0 Z " fill="#211C1D" transform="translate(398,499)"/>
<path d="M0 0 C3.755 2.041 4.775 3.284 6.062 7.375 C5.936 14.687 -0.186 19.47 -5.125 24.312 C-5.758 24.945 -6.391 25.577 -7.043 26.229 C-12.727 31.859 -12.727 31.859 -16.812 32.312 C-20.884 31.913 -22.308 31.076 -25 28 C-26.002 25.261 -26.457 22.888 -26 20 C-23.188 14.991 -19.442 11.168 -15.375 7.188 C-15.082 6.895 -15.082 6.895 -13.602 5.416 C-8.849 0.712 -6.78 -0.575 0 0 Z " fill="#1E1C1D" transform="translate(416,516)"/>
<path d="M0 0 C1.642 3.466 1.885 6.663 1.125 10.375 C-0.63 13.106 -2.844 15.153 -5.25 17.312 C-5.853 17.888 -6.457 18.464 -7.078 19.057 C-12.59 24.256 -12.59 24.256 -17.25 24.688 C-20.875 24.375 -20.875 24.375 -23.25 22.812 C-25.41 19.572 -25.807 17.258 -25.875 13.375 C-23.796 9.126 -20.762 5.927 -17.438 2.625 C-16.96 2.131 -16.482 1.638 -15.99 1.129 C-10.784 -4.084 -5.986 -5.188 0 0 Z " fill="#1E1C1D" transform="translate(377.875,489.625)"/>
<path d="M0 0 C2.875 1.562 2.875 1.562 5 4 C6.091 7.75 6.559 9.884 4.785 13.426 C2.88 16.173 0.822 18.409 -1.562 20.75 C-2.348 21.529 -3.133 22.307 -3.941 23.109 C-6.674 25.619 -7.611 25.964 -11.375 26.312 C-15 26 -15 26 -17.375 24.438 C-19.535 21.197 -19.932 18.883 -20 15 C-17.997 11.007 -15.323 7.908 -12.25 4.688 C-11.84 4.246 -11.84 4.246 -9.766 2.012 C-6.254 -0.543 -4.254 -0.496 0 0 Z " fill="#201C1D" transform="translate(431,536)"/>
<path d="M0 0 C4.856 3.443 9.2 7.043 13.328 11.332 C14.935 12.935 16.598 14.341 18.375 15.75 C21 18 21 18 22 21 C21.264 24.926 20.583 26.556 17.375 29 C12.981 30.302 10.15 29.861 6 28 C3.769 26.478 1.969 24.871 0 23 C0.228 22.455 0.456 21.909 0.691 21.348 C3.351 14.371 3.382 8.984 0.938 1.938 C0.628 1.298 0.319 0.659 0 0 Z " fill="#E2231A" transform="translate(442,533)"/>
</svg>
